{
  "nbformat": 4,
  "nbformat_minor": 0,
  "metadata": {
    "colab": {
      "name": "Wav2Lip.ipynb",
      "provenance": []
    },
    "kernelspec": {
      "name": "python3",
      "display_name": "Python 3"
    },
    "language_info": {
      "name": "python"
    },
    "accelerator": "GPU",
    "gpuClass": "standard"
  },
  "cells": [
    {
      "cell_type": "code",
      "source": [
        "!git clone https://github.com/ajay-sainy/Wav2Lip-GFPGAN.git\n",
        "basePath = \"/content/Wav2Lip-GFPGAN\"\n",
        "%cd {basePath}"
      ],
      "metadata": {
        "id": "YhFe3CJGAIiV",
        "colab": {
          "base_uri": "https://localhost:8080/",
          "height": 0
        },
        "outputId": "582c232d-9b5c-4f9d-9ca6-81a71aa55830"
      },
      "execution_count": 1,
      "outputs": [
        {
          "output_type": "stream",
          "name": "stdout",
          "text": [
            "Cloning into 'Wav2Lip-GFPGAN'...\n",
            "remote: Enumerating objects: 195, done.\u001b[K\n",
            "remote: Counting objects: 100% (35/35), done.\u001b[K\n",
            "remote: Compressing objects: 100% (26/26), done.\u001b[K\n",
            "remote: Total 195 (delta 18), reused 9 (delta 9), pack-reused 160 (from 1)\u001b[K\n",
            "Receiving objects: 100% (195/195), 29.94 MiB | 25.07 MiB/s, done.\n",
            "Resolving deltas: 100% (40/40), done.\n",
            "/content/Wav2Lip-GFPGAN\n"
          ]
        }
      ]
    },
    {
      "cell_type": "code",
      "source": [
        "wav2lipFolderName = 'Wav2Lip-master'\n",
        "gfpganFolderName = 'GFPGAN-master'\n",
        "wav2lipPath = basePath + '/' + wav2lipFolderName\n",
        "gfpganPath = basePath + '/' + gfpganFolderName\n",
        "\n",
        "!wget 'https://www.adrianbulat.com/downloads/python-fan/s3fd-619a316812.pth' -O {wav2lipPath}'/face_detection/detection/sfd/s3fd.pth'\n",
        "!gdown https://drive.google.com/uc?id=1fQtBSYEyuai9MjBOF8j7zZ4oQ9W2N64q --output {wav2lipPath}'/checkpoints/'"
      ],
      "metadata": {
        "id": "mH7A_OaFUs8U",
        "colab": {
          "base_uri": "https://localhost:8080/",
          "height": 0
        },
        "outputId": "ab966630-9bcd-4493-dbf0-6cc003366f79"
      },
      "execution_count": 2,
      "outputs": [
        {
          "output_type": "stream",
          "name": "stdout",
          "text": [
            "--2024-12-30 18:28:37--  https://www.adrianbulat.com/downloads/python-fan/s3fd-619a316812.pth\n",
            "Resolving www.adrianbulat.com (www.adrianbulat.com)... 45.136.29.207\n",
            "Connecting to www.adrianbulat.com (www.adrianbulat.com)|45.136.29.207|:443... connected.\n",
            "HTTP request sent, awaiting response... 200 OK\n",
            "Length: 89843225 (86M) [application/octet-stream]\n",
            "Saving to: ‘/content/Wav2Lip-GFPGAN/Wav2Lip-master/face_detection/detection/sfd/s3fd.pth’\n",
            "\n",
            "/content/Wav2Lip-GF 100%[===================>]  85.68M  20.5MB/s    in 5.1s    \n",
            "\n",
            "2024-12-30 18:28:43 (16.8 MB/s) - ‘/content/Wav2Lip-GFPGAN/Wav2Lip-master/face_detection/detection/sfd/s3fd.pth’ saved [89843225/89843225]\n",
            "\n",
            "Downloading...\n",
            "From (original): https://drive.google.com/uc?id=1fQtBSYEyuai9MjBOF8j7zZ4oQ9W2N64q\n",
            "From (redirected): https://drive.google.com/uc?id=1fQtBSYEyuai9MjBOF8j7zZ4oQ9W2N64q&confirm=t&uuid=3e8c0817-ce63-4bc7-b77c-af1dbaabd362\n",
            "To: /content/Wav2Lip-GFPGAN/Wav2Lip-master/checkpoints/wav2lip.pth\n",
            "100% 436M/436M [00:09<00:00, 46.5MB/s]\n"
          ]
        }
      ]
    },
    {
      "cell_type": "code",
      "source": [
        "!pip install -r requirements.txt"
      ],
      "metadata": {
        "id": "CAJqWQS17Qk1",
        "colab": {
          "base_uri": "https://localhost:8080/",
          "height": 0
        },
        "outputId": "3f4dc1ec-7525-4fcc-ab8c-4b929cb5b5c1"
      },
      "execution_count": 3,
      "outputs": [
        {
          "output_type": "stream",
          "name": "stdout",
          "text": [
            "\u001b[31mERROR: Invalid requirement: 'torchvision>=>=0.8.2': Expected end or semicolon (after name and no valid version specifier)\n",
            "    torchvision>=>=0.8.2\n",
            "               ^ (from line 6 of requirements.txt)\u001b[0m\u001b[31m\n",
            "\u001b[0m"
          ]
        }
      ]
    },
    {
      "cell_type": "code",
      "execution_count": 4,
      "metadata": {
        "id": "EqX_2YtkUjRI",
        "colab": {
          "base_uri": "https://localhost:8080/",
          "height": 0
        },
        "outputId": "20768b2f-4cb2-4036-c259-18ee44dafb7a"
      },
      "outputs": [
        {
          "output_type": "stream",
          "name": "stdout",
          "text": [
            "Using cuda for inference.\n",
            "Reading video frames...\n",
            "Number of frames available for inference: 253\n",
            "Extracting raw audio...\n",
            "ffmpeg version 4.4.2-0ubuntu0.22.04.1 Copyright (c) 2000-2021 the FFmpeg developers\n",
            "  built with gcc 11 (Ubuntu 11.2.0-19ubuntu1)\n",
            "  configuration: --prefix=/usr --extra-version=0ubuntu0.22.04.1 --toolchain=hardened --libdir=/usr/lib/x86_64-linux-gnu --incdir=/usr/include/x86_64-linux-gnu --arch=amd64 --enable-gpl --disable-stripping --enable-gnutls --enable-ladspa --enable-libaom --enable-libass --enable-libbluray --enable-libbs2b --enable-libcaca --enable-libcdio --enable-libcodec2 --enable-libdav1d --enable-libflite --enable-libfontconfig --enable-libfreetype --enable-libfribidi --enable-libgme --enable-libgsm --enable-libjack --enable-libmp3lame --enable-libmysofa --enable-libopenjpeg --enable-libopenmpt --enable-libopus --enable-libpulse --enable-librabbitmq --enable-librubberband --enable-libshine --enable-libsnappy --enable-libsoxr --enable-libspeex --enable-libsrt --enable-libssh --enable-libtheora --enable-libtwolame --enable-libvidstab --enable-libvorbis --enable-libvpx --enable-libwebp --enable-libx265 --enable-libxml2 --enable-libxvid --enable-libzimg --enable-libzmq --enable-libzvbi --enable-lv2 --enable-omx --enable-openal --enable-opencl --enable-opengl --enable-sdl2 --enable-pocketsphinx --enable-librsvg --enable-libmfx --enable-libdc1394 --enable-libdrm --enable-libiec61883 --enable-chromaprint --enable-frei0r --enable-libx264 --enable-shared\n",
            "  libavutil      56. 70.100 / 56. 70.100\n",
            "  libavcodec     58.134.100 / 58.134.100\n",
            "  libavformat    58. 76.100 / 58. 76.100\n",
            "  libavdevice    58. 13.100 / 58. 13.100\n",
            "  libavfilter     7.110.100 /  7.110.100\n",
            "  libswscale      5.  9.100 /  5.  9.100\n",
            "  libswresample   3.  9.100 /  3.  9.100\n",
            "  libpostproc    55.  9.100 / 55.  9.100\n",
            "Input #0, mp3, from '/content/Wav2Lip-GFPGAN/inputs/kim_audio.mp3':\n",
            "  Metadata:\n",
            "    comment         : audio-extractor.net\n",
            "  Duration: 00:00:07.44, start: 0.025057, bitrate: 132 kb/s\n",
            "  Stream #0:0: Audio: mp3, 44100 Hz, stereo, fltp, 128 kb/s\n",
            "    Metadata:\n",
            "      encoder         : Lavc59.18\n",
            "Stream mapping:\n",
            "  Stream #0:0 -> #0:0 (mp3 (mp3float) -> pcm_s16le (native))\n",
            "Press [q] to stop, [?] for help\n",
            "Output #0, wav, to 'temp/temp.wav':\n",
            "  Metadata:\n",
            "    ICMT            : audio-extractor.net\n",
            "    ISFT            : Lavf58.76.100\n",
            "  Stream #0:0: Audio: pcm_s16le ([1][0][0][0] / 0x0001), 44100 Hz, stereo, s16, 1411 kb/s\n",
            "    Metadata:\n",
            "      encoder         : Lavc58.134.100 pcm_s16le\n",
            "size=    1276kB time=00:00:07.39 bitrate=1413.9kbits/s speed= 335x    \n",
            "video:0kB audio:1276kB subtitle:0kB other streams:0kB global headers:0kB muxing overhead: 0.008113%\n",
            "(80, 593)\n",
            "Length of mel chunks: 218\n",
            "  0% 0/2 [00:00<?, ?it/s]/content/Wav2Lip-GFPGAN/Wav2Lip-master/face_detection/detection/sfd/sfd_detector.py:24: FutureWarning: You are using `torch.load` with `weights_only=False` (the current default value), which uses the default pickle module implicitly. It is possible to construct malicious pickle data which will execute arbitrary code during unpickling (See https://github.com/pytorch/pytorch/blob/main/SECURITY.md#untrusted-models for more details). In a future release, the default value for `weights_only` will be flipped to `True`. This limits the functions that could be executed during unpickling. Arbitrary objects will no longer be allowed to be loaded via this mode unless they are explicitly allowlisted by the user via `torch.serialization.add_safe_globals`. We recommend you start setting `weights_only=True` for any use case where you don't have full control of the loaded file. Please open an issue on GitHub for any issues related to this experimental feature.\n",
            "  model_weights = torch.load(path_to_detector)\n",
            "\n",
            "  0% 0/14 [00:10<?, ?it/s]\n",
            "Recovering from OOM error; New batch size: 8\n",
            "\n",
            "  0% 0/28 [00:00<?, ?it/s]\u001b[A\n",
            "  4% 1/28 [03:53<1:45:15, 233.92s/it]\u001b[A\n",
            "  7% 2/28 [03:59<43:04, 99.39s/it]   \u001b[A\n",
            " 11% 3/28 [04:04<23:26, 56.27s/it]\u001b[A\n",
            " 14% 4/28 [04:09<14:30, 36.26s/it]\u001b[A\n",
            " 18% 5/28 [04:14<09:32, 24.88s/it]\u001b[A\n",
            " 21% 6/28 [04:19<06:36, 18.02s/it]\u001b[A\n",
            " 25% 7/28 [04:24<04:48, 13.74s/it]\u001b[A\n",
            " 29% 8/28 [04:28<03:36, 10.82s/it]\u001b[A\n",
            " 32% 9/28 [04:34<02:54,  9.21s/it]\u001b[A\n",
            " 36% 10/28 [04:38<02:20,  7.81s/it]\u001b[A\n",
            " 39% 11/28 [04:43<01:56,  6.84s/it]\u001b[A\n",
            " 43% 12/28 [04:48<01:38,  6.18s/it]\u001b[A\n",
            " 46% 13/28 [04:52<01:25,  5.73s/it]\u001b[A\n",
            " 50% 14/28 [04:58<01:17,  5.55s/it]\u001b[A\n",
            " 54% 15/28 [05:03<01:10,  5.39s/it]\u001b[A\n",
            " 57% 16/28 [05:07<01:01,  5.16s/it]\u001b[A\n",
            " 61% 17/28 [05:12<00:57,  5.18s/it]\u001b[A\n",
            " 64% 18/28 [05:17<00:50,  5.02s/it]\u001b[A\n",
            " 68% 19/28 [05:22<00:43,  4.89s/it]\u001b[A\n",
            " 71% 20/28 [05:27<00:39,  4.91s/it]\u001b[A\n",
            " 75% 21/28 [05:31<00:34,  4.88s/it]\u001b[A\n",
            " 79% 22/28 [05:37<00:30,  5.13s/it]\u001b[A\n",
            " 82% 23/28 [05:42<00:25,  5.12s/it]\u001b[A\n",
            " 86% 24/28 [05:47<00:19,  5.00s/it]\u001b[A\n",
            " 89% 25/28 [05:52<00:14,  4.98s/it]\u001b[A\n",
            " 93% 26/28 [05:57<00:09,  4.92s/it]\u001b[A\n",
            " 96% 27/28 [06:02<00:05,  5.15s/it]\u001b[A\n",
            "100% 28/28 [06:15<00:00, 13.41s/it]\n",
            "Load checkpoint from: checkpoints/wav2lip.pth\n",
            "/content/Wav2Lip-GFPGAN/Wav2Lip-master/inference.py:162: FutureWarning: You are using `torch.load` with `weights_only=False` (the current default value), which uses the default pickle module implicitly. It is possible to construct malicious pickle data which will execute arbitrary code during unpickling (See https://github.com/pytorch/pytorch/blob/main/SECURITY.md#untrusted-models for more details). In a future release, the default value for `weights_only` will be flipped to `True`. This limits the functions that could be executed during unpickling. Arbitrary objects will no longer be allowed to be loaded via this mode unless they are explicitly allowlisted by the user via `torch.serialization.add_safe_globals`. We recommend you start setting `weights_only=True` for any use case where you don't have full control of the loaded file. Please open an issue on GitHub for any issues related to this experimental feature.\n",
            "  checkpoint = torch.load(checkpoint_path)\n",
            "Model loaded\n",
            "100% 2/2 [06:48<00:00, 204.34s/it]\n",
            "ffmpeg version 4.4.2-0ubuntu0.22.04.1 Copyright (c) 2000-2021 the FFmpeg developers\n",
            "  built with gcc 11 (Ubuntu 11.2.0-19ubuntu1)\n",
            "  configuration: --prefix=/usr --extra-version=0ubuntu0.22.04.1 --toolchain=hardened --libdir=/usr/lib/x86_64-linux-gnu --incdir=/usr/include/x86_64-linux-gnu --arch=amd64 --enable-gpl --disable-stripping --enable-gnutls --enable-ladspa --enable-libaom --enable-libass --enable-libbluray --enable-libbs2b --enable-libcaca --enable-libcdio --enable-libcodec2 --enable-libdav1d --enable-libflite --enable-libfontconfig --enable-libfreetype --enable-libfribidi --enable-libgme --enable-libgsm --enable-libjack --enable-libmp3lame --enable-libmysofa --enable-libopenjpeg --enable-libopenmpt --enable-libopus --enable-libpulse --enable-librabbitmq --enable-librubberband --enable-libshine --enable-libsnappy --enable-libsoxr --enable-libspeex --enable-libsrt --enable-libssh --enable-libtheora --enable-libtwolame --enable-libvidstab --enable-libvorbis --enable-libvpx --enable-libwebp --enable-libx265 --enable-libxml2 --enable-libxvid --enable-libzimg --enable-libzmq --enable-libzvbi --enable-lv2 --enable-omx --enable-openal --enable-opencl --enable-opengl --enable-sdl2 --enable-pocketsphinx --enable-librsvg --enable-libmfx --enable-libdc1394 --enable-libdrm --enable-libiec61883 --enable-chromaprint --enable-frei0r --enable-libx264 --enable-shared\n",
            "  libavutil      56. 70.100 / 56. 70.100\n",
            "  libavcodec     58.134.100 / 58.134.100\n",
            "  libavformat    58. 76.100 / 58. 76.100\n",
            "  libavdevice    58. 13.100 / 58. 13.100\n",
            "  libavfilter     7.110.100 /  7.110.100\n",
            "  libswscale      5.  9.100 /  5.  9.100\n",
            "  libswresample   3.  9.100 /  3.  9.100\n",
            "  libpostproc    55.  9.100 / 55.  9.100\n",
            "\u001b[0;33mGuessed Channel Layout for Input Stream #0.0 : stereo\n",
            "\u001b[0mInput #0, wav, from 'temp/temp.wav':\n",
            "  Metadata:\n",
            "    comment         : audio-extractor.net\n",
            "    encoder         : Lavf58.76.100\n",
            "  Duration: 00:00:07.41, bitrate: 1411 kb/s\n",
            "  Stream #0:0: Audio: pcm_s16le ([1][0][0][0] / 0x0001), 44100 Hz, stereo, s16, 1411 kb/s\n",
            "Input #1, avi, from 'temp/result.avi':\n",
            "  Metadata:\n",
            "    software        : Lavf59.27.100\n",
            "  Duration: 00:00:07.27, start: 0.000000, bitrate: 7695 kb/s\n",
            "  Stream #1:0: Video: mpeg4 (Simple Profile) (DIVX / 0x58564944), yuv420p, 1920x1080 [SAR 1:1 DAR 16:9], 7713 kb/s, 30 fps, 30 tbr, 30 tbn, 30 tbc\n",
            "Stream mapping:\n",
            "  Stream #1:0 -> #0:0 (mpeg4 (native) -> h264 (libx264))\n",
            "  Stream #0:0 -> #0:1 (pcm_s16le (native) -> aac (native))\n",
            "Press [q] to stop, [?] for help\n",
            "\u001b[1;36m[libx264 @ 0x5995cad437c0] \u001b[0m\u001b[0;33m-qscale is ignored, -crf is recommended.\n",
            "\u001b[0m\u001b[1;36m[libx264 @ 0x5995cad437c0] \u001b[0musing SAR=1/1\n",
            "\u001b[1;36m[libx264 @ 0x5995cad437c0] \u001b[0musing cpu capabilities: MMX2 SSE2Fast SSSE3 SSE4.2 AVX FMA3 BMI2 AVX2 AVX512\n",
            "\u001b[1;36m[libx264 @ 0x5995cad437c0] \u001b[0mprofile High, level 4.0, 4:2:0, 8-bit\n",
            "\u001b[1;36m[libx264 @ 0x5995cad437c0] \u001b[0m264 - core 163 r3060 5db6aa6 - H.264/MPEG-4 AVC codec - Copyleft 2003-2021 - http://www.videolan.org/x264.html - options: cabac=1 ref=3 deblock=1:0:0 analyse=0x3:0x113 me=hex subme=7 psy=1 psy_rd=1.00:0.00 mixed_ref=1 me_range=16 chroma_me=1 trellis=1 8x8dct=1 cqm=0 deadzone=21,11 fast_pskip=1 chroma_qp_offset=-2 threads=3 lookahead_threads=1 sliced_threads=0 nr=0 decimate=1 interlaced=0 bluray_compat=0 constrained_intra=0 bframes=3 b_pyramid=2 b_adapt=1 b_bias=0 direct=1 weightb=1 open_gop=0 weightp=2 keyint=250 keyint_min=25 scenecut=40 intra_refresh=0 rc_lookahead=40 rc=crf mbtree=1 crf=23.0 qcomp=0.60 qpmin=0 qpmax=69 qpstep=4 ip_ratio=1.40 aq=1:1.00\n",
            "Output #0, mp4, to '/content/Wav2Lip-GFPGAN/outputs/result.mp4':\n",
            "  Metadata:\n",
            "    comment         : audio-extractor.net\n",
            "    encoder         : Lavf58.76.100\n",
            "  Stream #0:0: Video: h264 (avc1 / 0x31637661), yuv420p(progressive), 1920x1080 [SAR 1:1 DAR 16:9], q=2-31, 30 fps, 15360 tbn\n",
            "    Metadata:\n",
            "      encoder         : Lavc58.134.100 libx264\n",
            "    Side data:\n",
            "      cpb: bitrate max/min/avg: 0/0/0 buffer size: 0 vbv_delay: N/A\n",
            "  Stream #0:1: Audio: aac (LC) (mp4a / 0x6134706D), 44100 Hz, stereo, fltp, 128 kb/s\n",
            "    Metadata:\n",
            "      encoder         : Lavc58.134.100 aac\n",
            "frame=  218 fps= 10 q=-1.0 Lsize=    3356kB time=00:00:07.38 bitrate=3723.0kbits/s speed=0.352x    \n",
            "video:3231kB audio:116kB subtitle:0kB other streams:0kB global headers:0kB muxing overhead: 0.246744%\n",
            "\u001b[1;36m[libx264 @ 0x5995cad437c0] \u001b[0mframe I:1     Avg QP:19.63  size: 75984\n",
            "\u001b[1;36m[libx264 @ 0x5995cad437c0] \u001b[0mframe P:153   Avg QP:21.69  size: 18912\n",
            "\u001b[1;36m[libx264 @ 0x5995cad437c0] \u001b[0mframe B:64    Avg QP:26.10  size:  5289\n",
            "\u001b[1;36m[libx264 @ 0x5995cad437c0] \u001b[0mconsecutive B-frames: 56.4%  7.3% 17.9% 18.3%\n",
            "\u001b[1;36m[libx264 @ 0x5995cad437c0] \u001b[0mmb I  I16..4: 34.2% 64.8%  1.1%\n",
            "\u001b[1;36m[libx264 @ 0x5995cad437c0] \u001b[0mmb P  I16..4:  0.8%  3.4%  0.1%  P16..4: 28.3%  7.1%  3.9%  0.0%  0.0%    skip:56.4%\n",
            "\u001b[1;36m[libx264 @ 0x5995cad437c0] \u001b[0mmb B  I16..4:  0.3%  1.1%  0.0%  B16..8: 32.1%  1.4%  0.2%  direct: 0.3%  skip:64.6%  L0:46.4% L1:49.3% BI: 4.3%\n",
            "\u001b[1;36m[libx264 @ 0x5995cad437c0] \u001b[0m8x8 transform intra:76.8% inter:76.4%\n",
            "\u001b[1;36m[libx264 @ 0x5995cad437c0] \u001b[0mcoded y,uvDC,uvAC intra: 43.0% 56.6% 14.2% inter: 8.9% 11.8% 0.2%\n",
            "\u001b[1;36m[libx264 @ 0x5995cad437c0] \u001b[0mi16 v,h,dc,p: 48% 27% 19%  6%\n",
            "\u001b[1;36m[libx264 @ 0x5995cad437c0] \u001b[0mi8 v,h,dc,ddl,ddr,vr,hd,vl,hu: 29% 21% 39%  2%  1%  2%  2%  2%  2%\n",
            "\u001b[1;36m[libx264 @ 0x5995cad437c0] \u001b[0mi4 v,h,dc,ddl,ddr,vr,hd,vl,hu: 36% 24% 16%  3%  4%  5%  4%  3%  3%\n",
            "\u001b[1;36m[libx264 @ 0x5995cad437c0] \u001b[0mi8c dc,h,v,p: 47% 21% 27%  4%\n",
            "\u001b[1;36m[libx264 @ 0x5995cad437c0] \u001b[0mWeighted P-Frames: Y:0.0% UV:0.0%\n",
            "\u001b[1;36m[libx264 @ 0x5995cad437c0] \u001b[0mref P L0: 73.3% 11.0% 11.5%  4.2%\n",
            "\u001b[1;36m[libx264 @ 0x5995cad437c0] \u001b[0mref B L0: 87.1% 10.6%  2.3%\n",
            "\u001b[1;36m[libx264 @ 0x5995cad437c0] \u001b[0mref B L1: 98.3%  1.7%\n",
            "\u001b[1;36m[libx264 @ 0x5995cad437c0] \u001b[0mkb/s:3641.80\n",
            "\u001b[1;36m[aac @ 0x5995cad44ec0] \u001b[0mQavg: 237.868\n"
          ]
        }
      ],
      "source": [
        "import os\n",
        "outputPath = basePath+'/outputs'\n",
        "inputAudioPath = basePath + '/inputs/kim_audio.mp3'\n",
        "inputVideoPath = basePath + '/inputs/kimk_7s_raw.mp4'\n",
        "lipSyncedOutputPath = basePath + '/outputs/result.mp4'\n",
        "\n",
        "if not os.path.exists(outputPath):\n",
        "  os.makedirs(outputPath)\n",
        "\n",
        "!cd $wav2lipFolderName && python inference.py \\\n",
        "--checkpoint_path checkpoints/wav2lip.pth \\\n",
        "--face {inputVideoPath} \\\n",
        "--audio {inputAudioPath} \\\n",
        "--outfile {lipSyncedOutputPath}"
      ]
    },
    {
      "cell_type": "code",
      "source": [
        "!cd $gfpganFolderName && python setup.py develop\n",
        "!wget https://github.com/TencentARC/GFPGAN/releases/download/v1.3.0/GFPGANv1.3.pth -P {gfpganFolderName}'/experiments/pretrained_models'"
      ],
      "metadata": {
        "id": "PPBew5FGGvP9",
        "colab": {
          "base_uri": "https://localhost:8080/",
          "height": 0
        },
        "outputId": "66ab39a8-e7db-4d07-8479-16602f32b36e"
      },
      "execution_count": 5,
      "outputs": [
        {
          "output_type": "stream",
          "name": "stdout",
          "text": [
            "/usr/local/lib/python3.10/dist-packages/setuptools/__init__.py:94: _DeprecatedInstaller: setuptools.installer and fetch_build_eggs are deprecated.\n",
            "!!\n",
            "\n",
            "        ********************************************************************************\n",
            "        Requirements should be satisfied by a PEP 517 installer.\n",
            "        If you are using pip, you can try `pip install --use-pep517`.\n",
            "        ********************************************************************************\n",
            "\n",
            "!!\n",
            "  dist.fetch_build_eggs(dist.setup_requires)\n",
            "running develop\n",
            "/usr/local/lib/python3.10/dist-packages/setuptools/command/develop.py:41: EasyInstallDeprecationWarning: easy_install command is deprecated.\n",
            "!!\n",
            "\n",
            "        ********************************************************************************\n",
            "        Please avoid running ``setup.py`` and ``easy_install``.\n",
            "        Instead, use pypa/build, pypa/installer or other\n",
            "        standards-based tools.\n",
            "\n",
            "        See https://github.com/pypa/setuptools/issues/917 for details.\n",
            "        ********************************************************************************\n",
            "\n",
            "!!\n",
            "  easy_install.initialize_options(self)\n",
            "/usr/local/lib/python3.10/dist-packages/setuptools/_distutils/cmd.py:66: SetuptoolsDeprecationWarning: setup.py install is deprecated.\n",
            "!!\n",
            "\n",
            "        ********************************************************************************\n",
            "        Please avoid running ``setup.py`` directly.\n",
            "        Instead, use pypa/build, pypa/installer or other\n",
            "        standards-based tools.\n",
            "\n",
            "        See https://blog.ganssle.io/articles/2021/10/setup-py-deprecated.html for details.\n",
            "        ********************************************************************************\n",
            "\n",
            "!!\n",
            "  self.initialize_options()\n",
            "running egg_info\n",
            "creating gfpgan.egg-info\n",
            "writing gfpgan.egg-info/PKG-INFO\n",
            "writing dependency_links to gfpgan.egg-info/dependency_links.txt\n",
            "writing requirements to gfpgan.egg-info/requires.txt\n",
            "writing top-level names to gfpgan.egg-info/top_level.txt\n",
            "writing manifest file 'gfpgan.egg-info/SOURCES.txt'\n",
            "reading manifest file 'gfpgan.egg-info/SOURCES.txt'\n",
            "reading manifest template 'MANIFEST.in'\n",
            "warning: no files found matching 'inputs/*'\n",
            "adding license file 'LICENSE'\n",
            "writing manifest file 'gfpgan.egg-info/SOURCES.txt'\n",
            "running build_ext\n",
            "Creating /usr/local/lib/python3.10/dist-packages/gfpgan.egg-link (link to .)\n",
            "Adding gfpgan 1.3.4 to easy-install.pth file\n",
            "\n",
            "Installed /content/Wav2Lip-GFPGAN/GFPGAN-master\n",
            "Processing dependencies for gfpgan==1.3.4\n",
            "Searching for yapf\n",
            "Reading https://pypi.org/simple/yapf/\n",
            "Downloading https://files.pythonhosted.org/packages/37/81/6acd6601f61e31cfb8729d3da6d5df966f80f374b78eff83760714487338/yapf-0.43.0-py3-none-any.whl#sha256=224faffbc39c428cb095818cf6ef5511fdab6f7430a10783fdfb292ccf2852ca\n",
            "Best match: yapf 0.43.0\n",
            "Processing yapf-0.43.0-py3-none-any.whl\n",
            "Installing yapf-0.43.0-py3-none-any.whl to /usr/local/lib/python3.10/dist-packages\n",
            "Adding yapf 0.43.0 to easy-install.pth file\n",
            "Installing yapf script to /usr/local/bin\n",
            "Installing yapf-diff script to /usr/local/bin\n",
            "\n",
            "Installed /usr/local/lib/python3.10/dist-packages/yapf-0.43.0-py3.10.egg\n",
            "Searching for tb-nightly\n",
            "Reading https://pypi.org/simple/tb-nightly/\n",
            "Downloading https://files.pythonhosted.org/packages/65/6c/b5f241db543f1bbbac4ba447eec33c73aa3332c0b3dcd54cb885815333da/tb_nightly-2.19.0a20241230-py3-none-any.whl#sha256=f343b43b9c7681ab278a6e6e10878827e931d6af2b9cbc33048e981a8adfee4f\n",
            "Best match: tb-nightly 2.19.0a20241230\n",
            "Processing tb_nightly-2.19.0a20241230-py3-none-any.whl\n",
            "Installing tb_nightly-2.19.0a20241230-py3-none-any.whl to /usr/local/lib/python3.10/dist-packages\n",
            "Adding tb-nightly 2.19.0a20241230 to easy-install.pth file\n",
            "detected new path './yapf-0.43.0-py3.10.egg'\n",
            "Installing tensorboard script to /usr/local/bin\n",
            "\n",
            "Installed /usr/local/lib/python3.10/dist-packages/tb_nightly-2.19.0a20241230-py3.10.egg\n",
            "Searching for numpy<1.21\n",
            "Reading https://pypi.org/simple/numpy/\n",
            "Downloading https://files.pythonhosted.org/packages/f3/1f/fe9459e39335e7d0e372b5e5dcd60f4381d3d1b42f0b9c8222102ff29ded/numpy-1.20.3.zip#sha256=e55185e51b18d788e49fe8305fd73ef4470596b33fc2c1ceb304566b99c71a69\n",
            "Best match: numpy 1.20.3\n",
            "Processing numpy-1.20.3.zip\n",
            "Writing /tmp/easy_install-dzkvni9n/numpy-1.20.3/setup.cfg\n",
            "Running numpy-1.20.3/setup.py -q bdist_egg --dist-dir /tmp/easy_install-dzkvni9n/numpy-1.20.3/egg-dist-tmp-xet_po33\n",
            "/tmp/easy_install-dzkvni9n/numpy-1.20.3/setup.py:66: RuntimeWarning: NumPy 1.20.3 may not yet support Python 3.10.\n",
            "  warnings.warn(\n",
            "Running from numpy source directory.\n",
            "/tmp/easy_install-dzkvni9n/numpy-1.20.3/setup.py:485: UserWarning: Unrecognized setuptools command, proceeding with generating Cython sources and expanding templates\n",
            "  run_build = parse_setuppy_commands()\n",
            "Traceback (most recent call last):\n",
            "  File \"/usr/local/lib/python3.10/dist-packages/setuptools/sandbox.py\", line 165, in save_modules\n",
            "    yield saved\n",
            "  File \"/usr/local/lib/python3.10/dist-packages/setuptools/sandbox.py\", line 207, in setup_context\n",
            "    yield\n",
            "  File \"/usr/local/lib/python3.10/dist-packages/setuptools/sandbox.py\", line 268, in run_setup\n",
            "    _execfile(setup_script, ns)\n",
            "  File \"/usr/local/lib/python3.10/dist-packages/setuptools/sandbox.py\", line 50, in _execfile\n",
            "    exec(code, globals, locals)\n",
            "  File \"/tmp/easy_install-dzkvni9n/numpy-1.20.3/setup.py\", line 513, in <module>\n",
            "  File \"/tmp/easy_install-dzkvni9n/numpy-1.20.3/setup.py\", line 490, in setup_package\n",
            "  File \"/tmp/easy_install-dzkvni9n/numpy-1.20.3/numpy/distutils/core.py\", line 24, in <module>\n",
            "  File \"/tmp/easy_install-dzkvni9n/numpy-1.20.3/numpy/distutils/command/config.py\", line 19, in <module>\n",
            "  File \"/tmp/easy_install-dzkvni9n/numpy-1.20.3/numpy/distutils/mingw32ccompiler.py\", line 29, in <module>\n",
            "ModuleNotFoundError: No module named 'distutils.msvccompiler'\n",
            "\n",
            "During handling of the above exception, another exception occurred:\n",
            "\n",
            "Traceback (most recent call last):\n",
            "  File \"/content/Wav2Lip-GFPGAN/GFPGAN-master/setup.py\", line 84, in <module>\n",
            "    setup(\n",
            "  File \"/usr/local/lib/python3.10/dist-packages/setuptools/__init__.py\", line 117, in setup\n",
            "    return distutils.core.setup(**attrs)\n",
            "  File \"/usr/local/lib/python3.10/dist-packages/setuptools/_distutils/core.py\", line 183, in setup\n",
            "    return run_commands(dist)\n",
            "  File \"/usr/local/lib/python3.10/dist-packages/setuptools/_distutils/core.py\", line 199, in run_commands\n",
            "    dist.run_commands()\n",
            "  File \"/usr/local/lib/python3.10/dist-packages/setuptools/_distutils/dist.py\", line 954, in run_commands\n",
            "    self.run_command(cmd)\n",
            "  File \"/usr/local/lib/python3.10/dist-packages/setuptools/dist.py\", line 950, in run_command\n",
            "    super().run_command(command)\n",
            "  File \"/usr/local/lib/python3.10/dist-packages/setuptools/_distutils/dist.py\", line 973, in run_command\n",
            "    cmd_obj.run()\n",
            "  File \"/usr/local/lib/python3.10/dist-packages/setuptools/command/develop.py\", line 35, in run\n",
            "    self.install_for_development()\n",
            "  File \"/usr/local/lib/python3.10/dist-packages/setuptools/command/develop.py\", line 127, in install_for_development\n",
            "    self.process_distribution(None, self.dist, not self.no_deps)\n",
            "  File \"/usr/local/lib/python3.10/dist-packages/setuptools/command/easy_install.py\", line 788, in process_distribution\n",
            "    distros = WorkingSet([]).resolve(\n",
            "  File \"/usr/local/lib/python3.10/dist-packages/pkg_resources/__init__.py\", line 897, in resolve\n",
            "    dist = self._resolve_dist(\n",
            "  File \"/usr/local/lib/python3.10/dist-packages/pkg_resources/__init__.py\", line 933, in _resolve_dist\n",
            "    dist = best[req.key] = env.best_match(\n",
            "  File \"/usr/local/lib/python3.10/dist-packages/pkg_resources/__init__.py\", line 1271, in best_match\n",
            "    return self.obtain(req, installer)\n",
            "  File \"/usr/local/lib/python3.10/dist-packages/pkg_resources/__init__.py\", line 1307, in obtain\n",
            "    return installer(requirement) if installer else None\n",
            "  File \"/usr/local/lib/python3.10/dist-packages/setuptools/command/easy_install.py\", line 712, in easy_install\n",
            "    return self.install_item(spec, dist.location, tmpdir, deps)\n",
            "  File \"/usr/local/lib/python3.10/dist-packages/setuptools/command/easy_install.py\", line 737, in install_item\n",
            "    dists = self.install_eggs(spec, download, tmpdir)\n",
            "  File \"/usr/local/lib/python3.10/dist-packages/setuptools/command/easy_install.py\", line 934, in install_eggs\n",
            "    return self.build_and_install(setup_script, setup_base)\n",
            "  File \"/usr/local/lib/python3.10/dist-packages/setuptools/command/easy_install.py\", line 1206, in build_and_install\n",
            "    self.run_setup(setup_script, setup_base, args)\n",
            "  File \"/usr/local/lib/python3.10/dist-packages/setuptools/command/easy_install.py\", line 1192, in run_setup\n",
            "    run_setup(setup_script, args)\n",
            "  File \"/usr/local/lib/python3.10/dist-packages/setuptools/sandbox.py\", line 258, in run_setup\n",
            "    with setup_context(setup_dir):\n",
            "  File \"/usr/lib/python3.10/contextlib.py\", line 153, in __exit__\n",
            "    self.gen.throw(typ, value, traceback)\n",
            "  File \"/usr/local/lib/python3.10/dist-packages/setuptools/sandbox.py\", line 199, in setup_context\n",
            "    with save_modules():\n",
            "  File \"/usr/lib/python3.10/contextlib.py\", line 153, in __exit__\n",
            "    self.gen.throw(typ, value, traceback)\n",
            "  File \"/usr/local/lib/python3.10/dist-packages/setuptools/sandbox.py\", line 178, in save_modules\n",
            "    saved_exc.resume()\n",
            "  File \"/usr/local/lib/python3.10/dist-packages/setuptools/sandbox.py\", line 152, in resume\n",
            "    raise exc.with_traceback(self._tb)\n",
            "  File \"/usr/local/lib/python3.10/dist-packages/setuptools/sandbox.py\", line 165, in save_modules\n",
            "    yield saved\n",
            "  File \"/usr/local/lib/python3.10/dist-packages/setuptools/sandbox.py\", line 207, in setup_context\n",
            "    yield\n",
            "  File \"/usr/local/lib/python3.10/dist-packages/setuptools/sandbox.py\", line 268, in run_setup\n",
            "    _execfile(setup_script, ns)\n",
            "  File \"/usr/local/lib/python3.10/dist-packages/setuptools/sandbox.py\", line 50, in _execfile\n",
            "    exec(code, globals, locals)\n",
            "  File \"/tmp/easy_install-dzkvni9n/numpy-1.20.3/setup.py\", line 513, in <module>\n",
            "  File \"/tmp/easy_install-dzkvni9n/numpy-1.20.3/setup.py\", line 490, in setup_package\n",
            "  File \"/tmp/easy_install-dzkvni9n/numpy-1.20.3/numpy/distutils/core.py\", line 24, in <module>\n",
            "  File \"/tmp/easy_install-dzkvni9n/numpy-1.20.3/numpy/distutils/command/config.py\", line 19, in <module>\n",
            "  File \"/tmp/easy_install-dzkvni9n/numpy-1.20.3/numpy/distutils/mingw32ccompiler.py\", line 29, in <module>\n",
            "ModuleNotFoundError: No module named 'distutils.msvccompiler'\n",
            "--2024-12-30 18:36:41--  https://github.com/TencentARC/GFPGAN/releases/download/v1.3.0/GFPGANv1.3.pth\n",
            "Resolving github.com (github.com)... 140.82.112.4\n",
            "Connecting to github.com (github.com)|140.82.112.4|:443... connected.\n",
            "HTTP request sent, awaiting response... 302 Found\n",
            "Location: https://objects.githubusercontent.com/github-production-release-asset-2e65be/349321229/e9847322-b8b1-4ec2-9620-5146eb8a9e4b?X-Amz-Algorithm=AWS4-HMAC-SHA256&X-Amz-Credential=releaseassetproduction%2F20241230%2Fus-east-1%2Fs3%2Faws4_request&X-Amz-Date=20241230T183642Z&X-Amz-Expires=300&X-Amz-Signature=3fdc0f9af7e936465e84e85fbbddf4fde33aa2574e0fbe498b63a8292a69d133&X-Amz-SignedHeaders=host&response-content-disposition=attachment%3B%20filename%3DGFPGANv1.3.pth&response-content-type=application%2Foctet-stream [following]\n",
            "--2024-12-30 18:36:42--  https://objects.githubusercontent.com/github-production-release-asset-2e65be/349321229/e9847322-b8b1-4ec2-9620-5146eb8a9e4b?X-Amz-Algorithm=AWS4-HMAC-SHA256&X-Amz-Credential=releaseassetproduction%2F20241230%2Fus-east-1%2Fs3%2Faws4_request&X-Amz-Date=20241230T183642Z&X-Amz-Expires=300&X-Amz-Signature=3fdc0f9af7e936465e84e85fbbddf4fde33aa2574e0fbe498b63a8292a69d133&X-Amz-SignedHeaders=host&response-content-disposition=attachment%3B%20filename%3DGFPGANv1.3.pth&response-content-type=application%2Foctet-stream\n",
            "Resolving objects.githubusercontent.com (objects.githubusercontent.com)... 185.199.108.133, 185.199.109.133, 185.199.110.133, ...\n",
            "Connecting to objects.githubusercontent.com (objects.githubusercontent.com)|185.199.108.133|:443... connected.\n",
            "HTTP request sent, awaiting response... 200 OK\n",
            "Length: 348632874 (332M) [application/octet-stream]\n",
            "Saving to: ‘GFPGAN-master/experiments/pretrained_models/GFPGANv1.3.pth’\n",
            "\n",
            "GFPGANv1.3.pth      100%[===================>] 332.48M  95.9MB/s    in 3.5s    \n",
            "\n",
            "2024-12-30 18:36:45 (95.9 MB/s) - ‘GFPGAN-master/experiments/pretrained_models/GFPGANv1.3.pth’ saved [348632874/348632874]\n",
            "\n"
          ]
        }
      ]
    },
    {
      "cell_type": "code",
      "source": [
        "import cv2\n",
        "from tqdm import tqdm\n",
        "from os import path\n",
        "\n",
        "import os\n",
        "\n",
        "inputVideoPath = outputPath+'/result.mp4'\n",
        "unProcessedFramesFolderPath = outputPath+'/frames'\n",
        "\n",
        "if not os.path.exists(unProcessedFramesFolderPath):\n",
        "  os.makedirs(unProcessedFramesFolderPath)\n",
        "\n",
        "vidcap = cv2.VideoCapture(inputVideoPath)\n",
        "numberOfFrames = int(vidcap.get(cv2.CAP_PROP_FRAME_COUNT))\n",
        "fps = vidcap.get(cv2.CAP_PROP_FPS)\n",
        "print(\"FPS: \", fps, \"Frames: \", numberOfFrames)\n",
        "\n",
        "for frameNumber in tqdm(range(numberOfFrames)):\n",
        "    _,image = vidcap.read()\n",
        "    cv2.imwrite(path.join(unProcessedFramesFolderPath, str(frameNumber).zfill(4)+'.jpg'), image)\n"
      ],
      "metadata": {
        "id": "X_RNegAcISU2",
        "colab": {
          "base_uri": "https://localhost:8080/",
          "height": 0
        },
        "outputId": "08a055b3-d2de-4ab7-9cbb-e4bf3f7fb696"
      },
      "execution_count": 6,
      "outputs": [
        {
          "output_type": "stream",
          "name": "stdout",
          "text": [
            "FPS:  30.0 Frames:  218\n"
          ]
        },
        {
          "output_type": "stream",
          "name": "stderr",
          "text": [
            "100%|██████████| 218/218 [00:03<00:00, 63.31it/s]\n"
          ]
        }
      ]
    },
    {
      "cell_type": "code",
      "source": [
        "!pip uninstall basicsr -y\n",
        "!pip install basicsr==1.4.2"
      ],
      "metadata": {
        "colab": {
          "base_uri": "https://localhost:8080/",
          "height": 0
        },
        "id": "sZXN9rRU5PHb",
        "outputId": "96f9d811-0d46-4898-b8ee-ac8662f108af"
      },
      "execution_count": 10,
      "outputs": [
        {
          "output_type": "stream",
          "name": "stdout",
          "text": [
            "\u001b[33mWARNING: Skipping basicsr as it is not installed.\u001b[0m\u001b[33m\n",
            "\u001b[0mCollecting basicsr==1.4.2\n",
            "  Downloading basicsr-1.4.2.tar.gz (172 kB)\n",
            "\u001b[2K     \u001b[90m━━━━━━━━━━━━━━━━━━━━━━━━━━━━━━━━━━━━━━━━\u001b[0m \u001b[32m172.5/172.5 kB\u001b[0m \u001b[31m5.3 MB/s\u001b[0m eta \u001b[36m0:00:00\u001b[0m\n",
            "\u001b[?25h  Preparing metadata (setup.py) ... \u001b[?25l\u001b[?25hdone\n",
            "Collecting addict (from basicsr==1.4.2)\n",
            "  Downloading addict-2.4.0-py3-none-any.whl.metadata (1.0 kB)\n",
            "Requirement already satisfied: future in /usr/local/lib/python3.10/dist-packages (from basicsr==1.4.2) (1.0.0)\n",
            "Collecting lmdb (from basicsr==1.4.2)\n",
            "  Downloading lmdb-1.5.1-cp310-cp310-manylinux_2_17_x86_64.manylinux2014_x86_64.whl.metadata (1.1 kB)\n",
            "Requirement already satisfied: numpy>=1.17 in /usr/local/lib/python3.10/dist-packages (from basicsr==1.4.2) (1.26.4)\n",
            "Requirement already satisfied: opencv-python in /usr/local/lib/python3.10/dist-packages (from basicsr==1.4.2) (4.10.0.84)\n",
            "Requirement already satisfied: Pillow in /usr/local/lib/python3.10/dist-packages (from basicsr==1.4.2) (11.0.0)\n",
            "Requirement already satisfied: pyyaml in /usr/local/lib/python3.10/dist-packages (from basicsr==1.4.2) (6.0.2)\n",
            "Requirement already satisfied: requests in /usr/local/lib/python3.10/dist-packages (from basicsr==1.4.2) (2.32.3)\n",
            "Requirement already satisfied: scikit-image in /usr/local/lib/python3.10/dist-packages (from basicsr==1.4.2) (0.25.0)\n",
            "Requirement already satisfied: scipy in /usr/local/lib/python3.10/dist-packages (from basicsr==1.4.2) (1.13.1)\n",
            "Requirement already satisfied: tb-nightly in /usr/local/lib/python3.10/dist-packages/tb_nightly-2.19.0a20241230-py3.10.egg (from basicsr==1.4.2) (2.19.0a20241230)\n",
            "Requirement already satisfied: torch>=1.7 in /usr/local/lib/python3.10/dist-packages (from basicsr==1.4.2) (2.5.1+cu121)\n",
            "Requirement already satisfied: torchvision in /usr/local/lib/python3.10/dist-packages (from basicsr==1.4.2) (0.20.1+cu121)\n",
            "Requirement already satisfied: tqdm in /usr/local/lib/python3.10/dist-packages (from basicsr==1.4.2) (4.67.1)\n",
            "Requirement already satisfied: yapf in /usr/local/lib/python3.10/dist-packages/yapf-0.43.0-py3.10.egg (from basicsr==1.4.2) (0.43.0)\n",
            "Requirement already satisfied: filelock in /usr/local/lib/python3.10/dist-packages (from torch>=1.7->basicsr==1.4.2) (3.16.1)\n",
            "Requirement already satisfied: typing-extensions>=4.8.0 in /usr/local/lib/python3.10/dist-packages (from torch>=1.7->basicsr==1.4.2) (4.12.2)\n",
            "Requirement already satisfied: networkx in /usr/local/lib/python3.10/dist-packages (from torch>=1.7->basicsr==1.4.2) (3.4.2)\n",
            "Requirement already satisfied: jinja2 in /usr/local/lib/python3.10/dist-packages (from torch>=1.7->basicsr==1.4.2) (3.1.4)\n",
            "Requirement already satisfied: fsspec in /usr/local/lib/python3.10/dist-packages (from torch>=1.7->basicsr==1.4.2) (2024.10.0)\n",
            "Requirement already satisfied: sympy==1.13.1 in /usr/local/lib/python3.10/dist-packages (from torch>=1.7->basicsr==1.4.2) (1.13.1)\n",
            "Requirement already satisfied: mpmath<1.4,>=1.1.0 in /usr/local/lib/python3.10/dist-packages (from sympy==1.13.1->torch>=1.7->basicsr==1.4.2) (1.3.0)\n",
            "Requirement already satisfied: charset-normalizer<4,>=2 in /usr/local/lib/python3.10/dist-packages (from requests->basicsr==1.4.2) (3.4.0)\n",
            "Requirement already satisfied: idna<4,>=2.5 in /usr/local/lib/python3.10/dist-packages (from requests->basicsr==1.4.2) (3.10)\n",
            "Requirement already satisfied: urllib3<3,>=1.21.1 in /usr/local/lib/python3.10/dist-packages (from requests->basicsr==1.4.2) (2.2.3)\n",
            "Requirement already satisfied: certifi>=2017.4.17 in /usr/local/lib/python3.10/dist-packages (from requests->basicsr==1.4.2) (2024.12.14)\n",
            "Requirement already satisfied: imageio!=2.35.0,>=2.33 in /usr/local/lib/python3.10/dist-packages (from scikit-image->basicsr==1.4.2) (2.36.1)\n",
            "Requirement already satisfied: tifffile>=2022.8.12 in /usr/local/lib/python3.10/dist-packages (from scikit-image->basicsr==1.4.2) (2024.12.12)\n",
            "Requirement already satisfied: packaging>=21 in /usr/local/lib/python3.10/dist-packages (from scikit-image->basicsr==1.4.2) (24.2)\n",
            "Requirement already satisfied: lazy-loader>=0.4 in /usr/local/lib/python3.10/dist-packages (from scikit-image->basicsr==1.4.2) (0.4)\n",
            "Requirement already satisfied: absl-py>=0.4 in /usr/local/lib/python3.10/dist-packages (from tb-nightly->basicsr==1.4.2) (1.4.0)\n",
            "Requirement already satisfied: grpcio>=1.48.2 in /usr/local/lib/python3.10/dist-packages (from tb-nightly->basicsr==1.4.2) (1.68.1)\n",
            "Requirement already satisfied: markdown>=2.6.8 in /usr/local/lib/python3.10/dist-packages (from tb-nightly->basicsr==1.4.2) (3.7)\n",
            "Requirement already satisfied: protobuf!=4.24.0,>=3.19.6 in /usr/local/lib/python3.10/dist-packages (from tb-nightly->basicsr==1.4.2) (4.25.5)\n",
            "Requirement already satisfied: setuptools>=41.0.0 in /usr/local/lib/python3.10/dist-packages (from tb-nightly->basicsr==1.4.2) (75.1.0)\n",
            "Requirement already satisfied: six>1.9 in /usr/local/lib/python3.10/dist-packages (from tb-nightly->basicsr==1.4.2) (1.17.0)\n",
            "Requirement already satisfied: tensorboard-data-server<0.8.0,>=0.7.0 in /usr/local/lib/python3.10/dist-packages (from tb-nightly->basicsr==1.4.2) (0.7.2)\n",
            "Requirement already satisfied: werkzeug>=1.0.1 in /usr/local/lib/python3.10/dist-packages (from tb-nightly->basicsr==1.4.2) (3.1.3)\n",
            "Requirement already satisfied: platformdirs>=3.5.1 in /usr/local/lib/python3.10/dist-packages (from yapf->basicsr==1.4.2) (4.3.6)\n",
            "Requirement already satisfied: tomli>=2.0.1 in /usr/local/lib/python3.10/dist-packages (from yapf->basicsr==1.4.2) (2.2.1)\n",
            "Requirement already satisfied: MarkupSafe>=2.1.1 in /usr/local/lib/python3.10/dist-packages (from werkzeug>=1.0.1->tb-nightly->basicsr==1.4.2) (3.0.2)\n",
            "Downloading addict-2.4.0-py3-none-any.whl (3.8 kB)\n",
            "Downloading lmdb-1.5.1-cp310-cp310-manylinux_2_17_x86_64.manylinux2014_x86_64.whl (294 kB)\n",
            "\u001b[2K   \u001b[90m━━━━━━━━━━━━━━━━━━━━━━━━━━━━━━━━━━━━━━━━\u001b[0m \u001b[32m294.9/294.9 kB\u001b[0m \u001b[31m17.5 MB/s\u001b[0m eta \u001b[36m0:00:00\u001b[0m\n",
            "\u001b[?25hBuilding wheels for collected packages: basicsr\n",
            "  Building wheel for basicsr (setup.py) ... \u001b[?25l\u001b[?25hdone\n",
            "  Created wheel for basicsr: filename=basicsr-1.4.2-py3-none-any.whl size=214818 sha256=8aaca63482963fa94c2fe10484ee8dcab98c78e372d997e5bc3084f3e5e14eac\n",
            "  Stored in directory: /root/.cache/pip/wheels/38/83/99/2d8437cc652a01af27df5ff037a4075e95b52d67705c5f30ca\n",
            "Successfully built basicsr\n",
            "Installing collected packages: lmdb, addict, basicsr\n",
            "\u001b[31mERROR: pip's dependency resolver does not currently take into account all the packages that are installed. This behaviour is the source of the following dependency conflicts.\n",
            "gfpgan 1.3.4 requires facexlib>=0.2.3, which is not installed.\n",
            "gfpgan 1.3.4 requires numpy<1.21, but you have numpy 1.26.4 which is incompatible.\u001b[0m\u001b[31m\n",
            "\u001b[0mSuccessfully installed addict-2.4.0 basicsr-1.4.2 lmdb-1.5.1\n"
          ]
        }
      ]
    },
    {
      "cell_type": "code",
      "source": [
        "!pip install torch==2.0.1 torchvision==0.15.2 --extra-index-url https://download.pytorch.org/whl/cu118\n"
      ],
      "metadata": {
        "colab": {
          "base_uri": "https://localhost:8080/",
          "height": 0
        },
        "id": "1kCUClzW5ff6",
        "outputId": "71ad79db-793d-4d78-db4e-33f27f1bd8ba"
      },
      "execution_count": 12,
      "outputs": [
        {
          "output_type": "stream",
          "name": "stdout",
          "text": [
            "Looking in indexes: https://pypi.org/simple, https://download.pytorch.org/whl/cu118\n",
            "Collecting torch==2.0.1\n",
            "  Downloading https://download.pytorch.org/whl/cu118/torch-2.0.1%2Bcu118-cp310-cp310-linux_x86_64.whl (2267.3 MB)\n",
            "\u001b[2K     \u001b[90m━━━━━━━━━━━━━━━━━━━━━━━━━━━━━━━━━━━━━━━━\u001b[0m \u001b[32m2.3/2.3 GB\u001b[0m \u001b[31m466.4 kB/s\u001b[0m eta \u001b[36m0:00:00\u001b[0m\n",
            "\u001b[?25hCollecting torchvision==0.15.2\n",
            "  Downloading https://download.pytorch.org/whl/cu118/torchvision-0.15.2%2Bcu118-cp310-cp310-linux_x86_64.whl (6.1 MB)\n",
            "\u001b[2K     \u001b[90m━━━━━━━━━━━━━━━━━━━━━━━━━━━━━━━━━━━━━━━━\u001b[0m \u001b[32m6.1/6.1 MB\u001b[0m \u001b[31m110.0 MB/s\u001b[0m eta \u001b[36m0:00:00\u001b[0m\n",
            "\u001b[?25hRequirement already satisfied: filelock in /usr/local/lib/python3.10/dist-packages (from torch==2.0.1) (3.16.1)\n",
            "Requirement already satisfied: typing-extensions in /usr/local/lib/python3.10/dist-packages (from torch==2.0.1) (4.12.2)\n",
            "Requirement already satisfied: sympy in /usr/local/lib/python3.10/dist-packages (from torch==2.0.1) (1.13.1)\n",
            "Requirement already satisfied: networkx in /usr/local/lib/python3.10/dist-packages (from torch==2.0.1) (3.4.2)\n",
            "Requirement already satisfied: jinja2 in /usr/local/lib/python3.10/dist-packages (from torch==2.0.1) (3.1.4)\n",
            "Collecting triton==2.0.0 (from torch==2.0.1)\n",
            "  Downloading https://download.pytorch.org/whl/triton-2.0.0-1-cp310-cp310-manylinux2014_x86_64.manylinux_2_17_x86_64.whl (63.3 MB)\n",
            "\u001b[2K     \u001b[90m━━━━━━━━━━━━━━━━━━━━━━━━━━━━━━━━━━━━━━━━\u001b[0m \u001b[32m63.3/63.3 MB\u001b[0m \u001b[31m10.9 MB/s\u001b[0m eta \u001b[36m0:00:00\u001b[0m\n",
            "\u001b[?25hRequirement already satisfied: numpy in /usr/local/lib/python3.10/dist-packages (from torchvision==0.15.2) (1.26.4)\n",
            "Requirement already satisfied: requests in /usr/local/lib/python3.10/dist-packages (from torchvision==0.15.2) (2.32.3)\n",
            "Requirement already satisfied: pillow!=8.3.*,>=5.3.0 in /usr/local/lib/python3.10/dist-packages (from torchvision==0.15.2) (11.0.0)\n",
            "Requirement already satisfied: cmake in /usr/local/lib/python3.10/dist-packages (from triton==2.0.0->torch==2.0.1) (3.31.2)\n",
            "Collecting lit (from triton==2.0.0->torch==2.0.1)\n",
            "  Downloading lit-18.1.8-py3-none-any.whl.metadata (2.5 kB)\n",
            "Requirement already satisfied: MarkupSafe>=2.0 in /usr/local/lib/python3.10/dist-packages (from jinja2->torch==2.0.1) (3.0.2)\n",
            "Requirement already satisfied: charset-normalizer<4,>=2 in /usr/local/lib/python3.10/dist-packages (from requests->torchvision==0.15.2) (3.4.0)\n",
            "Requirement already satisfied: idna<4,>=2.5 in /usr/local/lib/python3.10/dist-packages (from requests->torchvision==0.15.2) (3.10)\n",
            "Requirement already satisfied: urllib3<3,>=1.21.1 in /usr/local/lib/python3.10/dist-packages (from requests->torchvision==0.15.2) (2.2.3)\n",
            "Requirement already satisfied: certifi>=2017.4.17 in /usr/local/lib/python3.10/dist-packages (from requests->torchvision==0.15.2) (2024.12.14)\n",
            "Requirement already satisfied: mpmath<1.4,>=1.1.0 in /usr/local/lib/python3.10/dist-packages (from sympy->torch==2.0.1) (1.3.0)\n",
            "Downloading lit-18.1.8-py3-none-any.whl (96 kB)\n",
            "\u001b[2K   \u001b[90m━━━━━━━━━━━━━━━━━━━━━━━━━━━━━━━━━━━━━━━━\u001b[0m \u001b[32m96.4/96.4 kB\u001b[0m \u001b[31m3.0 MB/s\u001b[0m eta \u001b[36m0:00:00\u001b[0m\n",
            "\u001b[?25hInstalling collected packages: lit, triton, torch, torchvision\n",
            "  Attempting uninstall: torch\n",
            "    Found existing installation: torch 2.5.1+cu121\n",
            "    Uninstalling torch-2.5.1+cu121:\n",
            "      Successfully uninstalled torch-2.5.1+cu121\n",
            "  Attempting uninstall: torchvision\n",
            "    Found existing installation: torchvision 0.20.1+cu121\n",
            "    Uninstalling torchvision-0.20.1+cu121:\n",
            "      Successfully uninstalled torchvision-0.20.1+cu121\n",
            "\u001b[31mERROR: pip's dependency resolver does not currently take into account all the packages that are installed. This behaviour is the source of the following dependency conflicts.\n",
            "gfpgan 1.3.4 requires facexlib>=0.2.3, which is not installed.\n",
            "torchaudio 2.5.1+cu121 requires torch==2.5.1, but you have torch 2.0.1+cu118 which is incompatible.\n",
            "gfpgan 1.3.4 requires numpy<1.21, but you have numpy 1.26.4 which is incompatible.\u001b[0m\u001b[31m\n",
            "\u001b[0mSuccessfully installed lit-18.1.8 torch-2.0.1+cu118 torchvision-0.15.2+cu118 triton-2.0.0\n"
          ]
        }
      ]
    },
    {
      "cell_type": "code",
      "source": [
        "!pip install facexlib"
      ],
      "metadata": {
        "colab": {
          "base_uri": "https://localhost:8080/",
          "height": 0
        },
        "id": "dilIqYv76tcz",
        "outputId": "cf84b816-92aa-4720-df72-e3fa3ac3f13a"
      },
      "execution_count": 14,
      "outputs": [
        {
          "output_type": "stream",
          "name": "stdout",
          "text": [
            "Collecting facexlib\n",
            "  Downloading facexlib-0.3.0-py3-none-any.whl.metadata (4.6 kB)\n",
            "Collecting filterpy (from facexlib)\n",
            "  Downloading filterpy-1.4.5.zip (177 kB)\n",
            "\u001b[2K     \u001b[90m━━━━━━━━━━━━━━━━━━━━━━━━━━━━━━━━━━━━━━━━\u001b[0m \u001b[32m178.0/178.0 kB\u001b[0m \u001b[31m4.6 MB/s\u001b[0m eta \u001b[36m0:00:00\u001b[0m\n",
            "\u001b[?25h  Preparing metadata (setup.py) ... \u001b[?25l\u001b[?25hdone\n",
            "Requirement already satisfied: numba in /usr/local/lib/python3.10/dist-packages (from facexlib) (0.60.0)\n",
            "Requirement already satisfied: numpy in /usr/local/lib/python3.10/dist-packages (from facexlib) (1.26.4)\n",
            "Requirement already satisfied: opencv-python in /usr/local/lib/python3.10/dist-packages (from facexlib) (4.10.0.84)\n",
            "Requirement already satisfied: Pillow in /usr/local/lib/python3.10/dist-packages (from facexlib) (11.0.0)\n",
            "Requirement already satisfied: scipy in /usr/local/lib/python3.10/dist-packages (from facexlib) (1.13.1)\n",
            "Requirement already satisfied: torch in /usr/local/lib/python3.10/dist-packages (from facexlib) (2.0.1+cu118)\n",
            "Requirement already satisfied: torchvision in /usr/local/lib/python3.10/dist-packages (from facexlib) (0.15.2+cu118)\n",
            "Requirement already satisfied: tqdm in /usr/local/lib/python3.10/dist-packages (from facexlib) (4.67.1)\n",
            "Requirement already satisfied: matplotlib in /usr/local/lib/python3.10/dist-packages (from filterpy->facexlib) (3.8.0)\n",
            "Requirement already satisfied: llvmlite<0.44,>=0.43.0dev0 in /usr/local/lib/python3.10/dist-packages (from numba->facexlib) (0.43.0)\n",
            "Requirement already satisfied: filelock in /usr/local/lib/python3.10/dist-packages (from torch->facexlib) (3.16.1)\n",
            "Requirement already satisfied: typing-extensions in /usr/local/lib/python3.10/dist-packages (from torch->facexlib) (4.12.2)\n",
            "Requirement already satisfied: sympy in /usr/local/lib/python3.10/dist-packages (from torch->facexlib) (1.13.1)\n",
            "Requirement already satisfied: networkx in /usr/local/lib/python3.10/dist-packages (from torch->facexlib) (3.4.2)\n",
            "Requirement already satisfied: jinja2 in /usr/local/lib/python3.10/dist-packages (from torch->facexlib) (3.1.4)\n",
            "Requirement already satisfied: triton==2.0.0 in /usr/local/lib/python3.10/dist-packages (from torch->facexlib) (2.0.0)\n",
            "Requirement already satisfied: cmake in /usr/local/lib/python3.10/dist-packages (from triton==2.0.0->torch->facexlib) (3.31.2)\n",
            "Requirement already satisfied: lit in /usr/local/lib/python3.10/dist-packages (from triton==2.0.0->torch->facexlib) (18.1.8)\n",
            "Requirement already satisfied: requests in /usr/local/lib/python3.10/dist-packages (from torchvision->facexlib) (2.32.3)\n",
            "Requirement already satisfied: MarkupSafe>=2.0 in /usr/local/lib/python3.10/dist-packages (from jinja2->torch->facexlib) (3.0.2)\n",
            "Requirement already satisfied: contourpy>=1.0.1 in /usr/local/lib/python3.10/dist-packages (from matplotlib->filterpy->facexlib) (1.3.1)\n",
            "Requirement already satisfied: cycler>=0.10 in /usr/local/lib/python3.10/dist-packages (from matplotlib->filterpy->facexlib) (0.12.1)\n",
            "Requirement already satisfied: fonttools>=4.22.0 in /usr/local/lib/python3.10/dist-packages (from matplotlib->filterpy->facexlib) (4.55.3)\n",
            "Requirement already satisfied: kiwisolver>=1.0.1 in /usr/local/lib/python3.10/dist-packages (from matplotlib->filterpy->facexlib) (1.4.7)\n",
            "Requirement already satisfied: packaging>=20.0 in /usr/local/lib/python3.10/dist-packages (from matplotlib->filterpy->facexlib) (24.2)\n",
            "Requirement already satisfied: pyparsing>=2.3.1 in /usr/local/lib/python3.10/dist-packages (from matplotlib->filterpy->facexlib) (3.2.0)\n",
            "Requirement already satisfied: python-dateutil>=2.7 in /usr/local/lib/python3.10/dist-packages (from matplotlib->filterpy->facexlib) (2.8.2)\n",
            "Requirement already satisfied: charset-normalizer<4,>=2 in /usr/local/lib/python3.10/dist-packages (from requests->torchvision->facexlib) (3.4.0)\n",
            "Requirement already satisfied: idna<4,>=2.5 in /usr/local/lib/python3.10/dist-packages (from requests->torchvision->facexlib) (3.10)\n",
            "Requirement already satisfied: urllib3<3,>=1.21.1 in /usr/local/lib/python3.10/dist-packages (from requests->torchvision->facexlib) (2.2.3)\n",
            "Requirement already satisfied: certifi>=2017.4.17 in /usr/local/lib/python3.10/dist-packages (from requests->torchvision->facexlib) (2024.12.14)\n",
            "Requirement already satisfied: mpmath<1.4,>=1.1.0 in /usr/local/lib/python3.10/dist-packages (from sympy->torch->facexlib) (1.3.0)\n",
            "Requirement already satisfied: six>=1.5 in /usr/local/lib/python3.10/dist-packages (from python-dateutil>=2.7->matplotlib->filterpy->facexlib) (1.17.0)\n",
            "Downloading facexlib-0.3.0-py3-none-any.whl (59 kB)\n",
            "\u001b[2K   \u001b[90m━━━━━━━━━━━━━━━━━━━━━━━━━━━━━━━━━━━━━━━━\u001b[0m \u001b[32m59.6/59.6 kB\u001b[0m \u001b[31m5.4 MB/s\u001b[0m eta \u001b[36m0:00:00\u001b[0m\n",
            "\u001b[?25hBuilding wheels for collected packages: filterpy\n",
            "  Building wheel for filterpy (setup.py) ... \u001b[?25l\u001b[?25hdone\n",
            "  Created wheel for filterpy: filename=filterpy-1.4.5-py3-none-any.whl size=110458 sha256=96748bf89c90770ade5d5001f8d43e526ca9e3dea4759aa5215b2f98805fcf62\n",
            "  Stored in directory: /root/.cache/pip/wheels/0f/0c/ea/218f266af4ad626897562199fbbcba521b8497303200186102\n",
            "Successfully built filterpy\n",
            "Installing collected packages: filterpy, facexlib\n",
            "\u001b[31mERROR: pip's dependency resolver does not currently take into account all the packages that are installed. This behaviour is the source of the following dependency conflicts.\n",
            "gfpgan 1.3.4 requires numpy<1.21, but you have numpy 1.26.4 which is incompatible.\u001b[0m\u001b[31m\n",
            "\u001b[0mSuccessfully installed facexlib-0.3.0 filterpy-1.4.5\n"
          ]
        }
      ]
    },
    {
      "cell_type": "code",
      "source": [
        "!cd $gfpganFolderName && \\\n",
        "  python inference_gfpgan.py -i $unProcessedFramesFolderPath -o $outputPath -v 1.3 -s 2 --only_center_face --bg_upsampler None"
      ],
      "metadata": {
        "id": "k6krjfxTJYlu",
        "colab": {
          "base_uri": "https://localhost:8080/",
          "height": 0
        },
        "outputId": "2574bb54-e700-4095-f211-75ebc1f2fe29"
      },
      "execution_count": 15,
      "outputs": [
        {
          "output_type": "stream",
          "name": "stdout",
          "text": [
            "/usr/local/lib/python3.10/dist-packages/torchvision/transforms/functional_tensor.py:5: UserWarning: The torchvision.transforms.functional_tensor module is deprecated in 0.15 and will be **removed in 0.17**. Please don't rely on it. You probably just need to use APIs in torchvision.transforms.functional or in torchvision.transforms.v2.functional.\n",
            "  warnings.warn(\n",
            "/usr/local/lib/python3.10/dist-packages/torchvision/models/_utils.py:208: UserWarning: The parameter 'pretrained' is deprecated since 0.13 and may be removed in the future, please use 'weights' instead.\n",
            "  warnings.warn(\n",
            "/usr/local/lib/python3.10/dist-packages/torchvision/models/_utils.py:223: UserWarning: Arguments other than a weight enum or `None` for 'weights' are deprecated since 0.13 and may be removed in the future. The current behavior is equivalent to passing `weights=None`.\n",
            "  warnings.warn(msg)\n",
            "Downloading: \"https://github.com/xinntao/facexlib/releases/download/v0.1.0/detection_Resnet50_Final.pth\" to /usr/local/lib/python3.10/dist-packages/facexlib/weights/detection_Resnet50_Final.pth\n",
            "\n",
            "100% 104M/104M [00:00<00:00, 311MB/s] \n",
            "Downloading: \"https://github.com/xinntao/facexlib/releases/download/v0.2.2/parsing_parsenet.pth\" to /usr/local/lib/python3.10/dist-packages/facexlib/weights/parsing_parsenet.pth\n",
            "\n",
            "100% 81.4M/81.4M [00:00<00:00, 234MB/s]\n",
            "  0% 0/218 [00:00<?, ?it/s]Processing 0000.jpg ...\n",
            "  0% 1/218 [00:02<09:43,  2.69s/it]Processing 0001.jpg ...\n",
            "  1% 2/218 [00:04<07:42,  2.14s/it]Processing 0002.jpg ...\n",
            "  1% 3/218 [00:05<06:05,  1.70s/it]Processing 0003.jpg ...\n",
            "  2% 4/218 [00:06<05:17,  1.48s/it]Processing 0004.jpg ...\n",
            "  2% 5/218 [00:07<04:48,  1.36s/it]Processing 0005.jpg ...\n",
            "  3% 6/218 [00:09<04:33,  1.29s/it]Processing 0006.jpg ...\n",
            "  3% 7/218 [00:10<04:21,  1.24s/it]Processing 0007.jpg ...\n",
            "  4% 8/218 [00:11<04:16,  1.22s/it]Processing 0008.jpg ...\n",
            "  4% 9/218 [00:12<04:14,  1.22s/it]Processing 0009.jpg ...\n",
            "  5% 10/218 [00:13<04:08,  1.19s/it]Processing 0010.jpg ...\n",
            "  5% 11/218 [00:15<04:17,  1.24s/it]Processing 0011.jpg ...\n",
            "  6% 12/218 [00:16<04:44,  1.38s/it]Processing 0012.jpg ...\n",
            "  6% 13/218 [00:18<04:37,  1.35s/it]Processing 0013.jpg ...\n",
            "  6% 14/218 [00:19<04:30,  1.33s/it]Processing 0014.jpg ...\n",
            "  7% 15/218 [00:20<04:23,  1.30s/it]Processing 0015.jpg ...\n",
            "  7% 16/218 [00:21<04:15,  1.26s/it]Processing 0016.jpg ...\n",
            "  8% 17/218 [00:22<04:07,  1.23s/it]Processing 0017.jpg ...\n",
            "  8% 18/218 [00:24<04:01,  1.21s/it]Processing 0018.jpg ...\n",
            "  9% 19/218 [00:25<03:56,  1.19s/it]Processing 0019.jpg ...\n",
            "  9% 20/218 [00:26<03:52,  1.17s/it]Processing 0020.jpg ...\n",
            " 10% 21/218 [00:27<03:56,  1.20s/it]Processing 0021.jpg ...\n",
            " 10% 22/218 [00:29<04:22,  1.34s/it]Processing 0022.jpg ...\n",
            " 11% 23/218 [00:30<04:29,  1.38s/it]Processing 0023.jpg ...\n",
            " 11% 24/218 [00:31<04:14,  1.31s/it]Processing 0024.jpg ...\n",
            " 11% 25/218 [00:33<04:04,  1.26s/it]Processing 0025.jpg ...\n",
            " 12% 26/218 [00:34<03:56,  1.23s/it]Processing 0026.jpg ...\n",
            " 12% 27/218 [00:35<03:50,  1.21s/it]Processing 0027.jpg ...\n",
            " 13% 28/218 [00:36<03:46,  1.19s/it]Processing 0028.jpg ...\n",
            " 13% 29/218 [00:37<03:42,  1.18s/it]Processing 0029.jpg ...\n",
            " 14% 30/218 [00:38<03:39,  1.17s/it]Processing 0030.jpg ...\n",
            " 14% 31/218 [00:39<03:36,  1.16s/it]Processing 0031.jpg ...\n",
            " 15% 32/218 [00:41<03:56,  1.27s/it]Processing 0032.jpg ...\n",
            " 15% 33/218 [00:43<04:16,  1.38s/it]Processing 0033.jpg ...\n",
            " 16% 34/218 [00:44<04:01,  1.31s/it]Processing 0034.jpg ...\n",
            " 16% 35/218 [00:45<03:51,  1.26s/it]Processing 0035.jpg ...\n",
            " 17% 36/218 [00:46<03:44,  1.23s/it]Processing 0036.jpg ...\n",
            " 17% 37/218 [00:47<03:39,  1.21s/it]Processing 0037.jpg ...\n",
            " 17% 38/218 [00:48<03:36,  1.20s/it]Processing 0038.jpg ...\n",
            " 18% 39/218 [00:50<03:31,  1.18s/it]Processing 0039.jpg ...\n",
            " 18% 40/218 [00:51<03:30,  1.18s/it]Processing 0040.jpg ...\n",
            " 19% 41/218 [00:52<03:26,  1.17s/it]Processing 0041.jpg ...\n",
            " 19% 42/218 [00:53<03:38,  1.24s/it]Processing 0042.jpg ...\n",
            " 20% 43/218 [00:55<04:03,  1.39s/it]Processing 0043.jpg ...\n",
            " 20% 44/218 [00:56<03:58,  1.37s/it]Processing 0044.jpg ...\n",
            " 21% 45/218 [00:58<03:46,  1.31s/it]Processing 0045.jpg ...\n",
            " 21% 46/218 [00:59<03:38,  1.27s/it]Processing 0046.jpg ...\n",
            " 22% 47/218 [01:00<03:31,  1.24s/it]Processing 0047.jpg ...\n",
            " 22% 48/218 [01:01<03:27,  1.22s/it]Processing 0048.jpg ...\n",
            " 22% 49/218 [01:02<03:23,  1.21s/it]Processing 0049.jpg ...\n",
            " 23% 50/218 [01:03<03:21,  1.20s/it]Processing 0050.jpg ...\n",
            " 23% 51/218 [01:05<03:18,  1.19s/it]Processing 0051.jpg ...\n",
            " 24% 52/218 [01:06<03:21,  1.21s/it]Processing 0052.jpg ...\n",
            " 24% 53/218 [01:08<03:46,  1.37s/it]Processing 0053.jpg ...\n",
            " 25% 54/218 [01:09<03:50,  1.40s/it]Processing 0054.jpg ...\n",
            " 25% 55/218 [01:10<03:37,  1.33s/it]Processing 0055.jpg ...\n",
            " 26% 56/218 [01:11<03:28,  1.29s/it]Processing 0056.jpg ...\n",
            " 26% 57/218 [01:13<03:21,  1.25s/it]Processing 0057.jpg ...\n",
            " 27% 58/218 [01:14<03:15,  1.22s/it]Processing 0058.jpg ...\n",
            " 27% 59/218 [01:15<03:11,  1.21s/it]Processing 0059.jpg ...\n",
            " 28% 60/218 [01:16<03:09,  1.20s/it]Processing 0060.jpg ...\n",
            " 28% 61/218 [01:17<03:07,  1.20s/it]Processing 0061.jpg ...\n",
            " 28% 62/218 [01:18<03:05,  1.19s/it]Processing 0062.jpg ...\n",
            " 29% 63/218 [01:20<03:32,  1.37s/it]Processing 0063.jpg ...\n",
            " 29% 64/218 [01:22<03:37,  1.41s/it]Processing 0064.jpg ...\n",
            " 30% 65/218 [01:23<03:24,  1.34s/it]Processing 0065.jpg ...\n",
            " 30% 66/218 [01:24<03:17,  1.30s/it]Processing 0066.jpg ...\n",
            " 31% 67/218 [01:25<03:10,  1.26s/it]Processing 0067.jpg ...\n",
            " 31% 68/218 [01:26<03:04,  1.23s/it]Processing 0068.jpg ...\n",
            " 32% 69/218 [01:28<03:00,  1.21s/it]Processing 0069.jpg ...\n",
            " 32% 70/218 [01:29<02:57,  1.20s/it]Processing 0070.jpg ...\n",
            " 33% 71/218 [01:30<02:54,  1.19s/it]Processing 0071.jpg ...\n",
            " 33% 72/218 [01:31<02:53,  1.19s/it]Processing 0072.jpg ...\n",
            " 33% 73/218 [01:33<03:18,  1.37s/it]Processing 0073.jpg ...\n",
            " 34% 74/218 [01:34<03:23,  1.41s/it]Processing 0074.jpg ...\n",
            " 34% 75/218 [01:36<03:11,  1.34s/it]Processing 0075.jpg ...\n",
            " 35% 76/218 [01:37<03:04,  1.30s/it]Processing 0076.jpg ...\n",
            " 35% 77/218 [01:38<02:59,  1.27s/it]Processing 0077.jpg ...\n",
            " 36% 78/218 [01:39<02:54,  1.24s/it]Processing 0078.jpg ...\n",
            " 36% 79/218 [01:40<02:50,  1.22s/it]Processing 0079.jpg ...\n",
            " 37% 80/218 [01:42<02:46,  1.21s/it]Processing 0080.jpg ...\n",
            " 37% 81/218 [01:43<02:43,  1.19s/it]Processing 0081.jpg ...\n",
            " 38% 82/218 [01:44<02:41,  1.19s/it]Processing 0082.jpg ...\n",
            " 38% 83/218 [01:46<02:58,  1.32s/it]Processing 0083.jpg ...\n",
            " 39% 84/218 [01:47<03:11,  1.43s/it]Processing 0084.jpg ...\n",
            " 39% 85/218 [01:48<03:01,  1.36s/it]Processing 0085.jpg ...\n",
            " 39% 86/218 [01:50<02:52,  1.31s/it]Processing 0086.jpg ...\n",
            " 40% 87/218 [01:51<02:46,  1.27s/it]Processing 0087.jpg ...\n",
            " 40% 88/218 [01:52<02:41,  1.25s/it]Processing 0088.jpg ...\n",
            " 41% 89/218 [01:53<02:40,  1.24s/it]Processing 0089.jpg ...\n",
            " 41% 90/218 [01:54<02:36,  1.22s/it]Processing 0090.jpg ...\n",
            " 42% 91/218 [01:56<02:33,  1.21s/it]Processing 0091.jpg ...\n",
            " 42% 92/218 [01:57<02:31,  1.20s/it]Processing 0092.jpg ...\n",
            " 43% 93/218 [01:58<02:42,  1.30s/it]Processing 0093.jpg ...\n",
            " 43% 94/218 [02:00<02:58,  1.44s/it]Processing 0094.jpg ...\n",
            " 44% 95/218 [02:01<02:47,  1.36s/it]Processing 0095.jpg ...\n",
            " 44% 96/218 [02:02<02:38,  1.30s/it]Processing 0096.jpg ...\n",
            " 44% 97/218 [02:04<02:32,  1.26s/it]Processing 0097.jpg ...\n",
            " 45% 98/218 [02:05<02:27,  1.23s/it]Processing 0098.jpg ...\n",
            " 45% 99/218 [02:06<02:23,  1.21s/it]Processing 0099.jpg ...\n",
            " 46% 100/218 [02:07<02:21,  1.20s/it]Processing 0100.jpg ...\n",
            " 46% 101/218 [02:08<02:19,  1.19s/it]Processing 0101.jpg ...\n",
            " 47% 102/218 [02:09<02:17,  1.19s/it]Processing 0102.jpg ...\n",
            " 47% 103/218 [02:11<02:23,  1.25s/it]Processing 0103.jpg ...\n",
            " 48% 104/218 [02:13<02:40,  1.41s/it]Processing 0104.jpg ...\n",
            " 48% 105/218 [02:14<02:35,  1.38s/it]Processing 0105.jpg ...\n",
            " 49% 106/218 [02:15<02:27,  1.32s/it]Processing 0106.jpg ...\n",
            " 49% 107/218 [02:16<02:21,  1.27s/it]Processing 0107.jpg ...\n",
            " 50% 108/218 [02:17<02:16,  1.24s/it]Processing 0108.jpg ...\n",
            " 50% 109/218 [02:19<02:13,  1.22s/it]Processing 0109.jpg ...\n",
            " 50% 110/218 [02:20<02:11,  1.21s/it]Processing 0110.jpg ...\n",
            " 51% 111/218 [02:21<02:08,  1.20s/it]Processing 0111.jpg ...\n",
            " 51% 112/218 [02:22<02:07,  1.20s/it]Processing 0112.jpg ...\n",
            " 52% 113/218 [02:23<02:10,  1.24s/it]Processing 0113.jpg ...\n",
            " 52% 114/218 [02:25<02:24,  1.39s/it]Processing 0114.jpg ...\n",
            " 53% 115/218 [02:27<02:25,  1.42s/it]Processing 0115.jpg ...\n",
            " 53% 116/218 [02:28<02:17,  1.34s/it]Processing 0116.jpg ...\n",
            " 54% 117/218 [02:29<02:10,  1.29s/it]Processing 0117.jpg ...\n",
            " 54% 118/218 [02:30<02:05,  1.25s/it]Processing 0118.jpg ...\n",
            " 55% 119/218 [02:31<02:01,  1.23s/it]Processing 0119.jpg ...\n",
            " 55% 120/218 [02:32<01:58,  1.20s/it]Processing 0120.jpg ...\n",
            " 56% 121/218 [02:34<01:55,  1.19s/it]Processing 0121.jpg ...\n",
            " 56% 122/218 [02:35<01:53,  1.18s/it]Processing 0122.jpg ...\n",
            " 56% 123/218 [02:36<01:52,  1.18s/it]Processing 0123.jpg ...\n",
            " 57% 124/218 [02:38<02:07,  1.35s/it]Processing 0124.jpg ...\n",
            " 57% 125/218 [02:39<02:11,  1.41s/it]Processing 0125.jpg ...\n",
            " 58% 126/218 [02:40<02:02,  1.33s/it]Processing 0126.jpg ...\n",
            " 58% 127/218 [02:42<01:56,  1.28s/it]Processing 0127.jpg ...\n",
            " 59% 128/218 [02:43<01:51,  1.24s/it]Processing 0128.jpg ...\n",
            " 59% 129/218 [02:44<01:47,  1.21s/it]Processing 0129.jpg ...\n",
            " 60% 130/218 [02:45<01:45,  1.19s/it]Processing 0130.jpg ...\n",
            " 60% 131/218 [02:46<01:42,  1.18s/it]Processing 0131.jpg ...\n",
            " 61% 132/218 [02:47<01:40,  1.17s/it]Processing 0132.jpg ...\n",
            " 61% 133/218 [02:49<01:39,  1.17s/it]Processing 0133.jpg ...\n",
            " 61% 134/218 [02:50<01:44,  1.24s/it]Processing 0134.jpg ...\n",
            " 62% 135/218 [02:52<01:54,  1.38s/it]Processing 0135.jpg ...\n",
            " 62% 136/218 [02:53<01:51,  1.36s/it]Processing 0136.jpg ...\n",
            " 63% 137/218 [02:54<01:44,  1.29s/it]Processing 0137.jpg ...\n",
            " 63% 138/218 [02:55<01:40,  1.25s/it]Processing 0138.jpg ...\n",
            " 64% 139/218 [02:56<01:36,  1.22s/it]Processing 0139.jpg ...\n",
            " 64% 140/218 [02:58<01:33,  1.20s/it]Processing 0140.jpg ...\n",
            " 65% 141/218 [02:59<01:31,  1.19s/it]Processing 0141.jpg ...\n",
            " 65% 142/218 [03:00<01:29,  1.18s/it]Processing 0142.jpg ...\n",
            " 66% 143/218 [03:01<01:28,  1.18s/it]Processing 0143.jpg ...\n",
            " 66% 144/218 [03:02<01:28,  1.20s/it]Processing 0144.jpg ...\n",
            " 67% 145/218 [03:04<01:39,  1.36s/it]Processing 0145.jpg ...\n",
            " 67% 146/218 [03:06<01:41,  1.40s/it]Processing 0146.jpg ...\n",
            " 67% 147/218 [03:07<01:34,  1.33s/it]Processing 0147.jpg ...\n",
            " 68% 148/218 [03:08<01:29,  1.28s/it]Processing 0148.jpg ...\n",
            " 68% 149/218 [03:09<01:25,  1.24s/it]Processing 0149.jpg ...\n",
            " 69% 150/218 [03:10<01:22,  1.21s/it]Processing 0150.jpg ...\n",
            " 69% 151/218 [03:11<01:20,  1.20s/it]Processing 0151.jpg ...\n",
            " 70% 152/218 [03:12<01:18,  1.18s/it]Processing 0152.jpg ...\n",
            " 70% 153/218 [03:14<01:16,  1.18s/it]Processing 0153.jpg ...\n",
            " 71% 154/218 [03:15<01:15,  1.18s/it]Processing 0154.jpg ...\n",
            " 71% 155/218 [03:16<01:23,  1.32s/it]Processing 0155.jpg ...\n",
            " 72% 156/218 [03:18<01:27,  1.40s/it]Processing 0156.jpg ...\n",
            " 72% 157/218 [03:19<01:21,  1.33s/it]Processing 0157.jpg ...\n",
            " 72% 158/218 [03:20<01:16,  1.28s/it]Processing 0158.jpg ...\n",
            " 73% 159/218 [03:22<01:13,  1.25s/it]Processing 0159.jpg ...\n",
            " 73% 160/218 [03:23<01:11,  1.23s/it]Processing 0160.jpg ...\n",
            " 74% 161/218 [03:24<01:08,  1.21s/it]Processing 0161.jpg ...\n",
            " 74% 162/218 [03:25<01:06,  1.19s/it]Processing 0162.jpg ...\n",
            " 75% 163/218 [03:26<01:05,  1.18s/it]Processing 0163.jpg ...\n",
            " 75% 164/218 [03:27<01:03,  1.17s/it]Processing 0164.jpg ...\n",
            " 76% 165/218 [03:29<01:06,  1.25s/it]Processing 0165.jpg ...\n",
            " 76% 166/218 [03:30<01:11,  1.38s/it]Processing 0166.jpg ...\n",
            " 77% 167/218 [03:32<01:08,  1.35s/it]Processing 0167.jpg ...\n",
            " 77% 168/218 [03:33<01:04,  1.29s/it]Processing 0168.jpg ...\n",
            " 78% 169/218 [03:34<01:01,  1.26s/it]Processing 0169.jpg ...\n",
            " 78% 170/218 [03:35<00:59,  1.24s/it]Processing 0170.jpg ...\n",
            " 78% 171/218 [03:36<00:57,  1.22s/it]Processing 0171.jpg ...\n",
            " 79% 172/218 [03:38<00:55,  1.20s/it]Processing 0172.jpg ...\n",
            " 79% 173/218 [03:39<00:53,  1.20s/it]Processing 0173.jpg ...\n",
            " 80% 174/218 [03:40<00:52,  1.20s/it]Processing 0174.jpg ...\n",
            " 80% 175/218 [03:41<00:53,  1.24s/it]Processing 0175.jpg ...\n",
            " 81% 176/218 [03:43<00:58,  1.39s/it]Processing 0176.jpg ...\n",
            " 81% 177/218 [03:44<00:57,  1.39s/it]Processing 0177.jpg ...\n",
            " 82% 178/218 [03:46<00:53,  1.33s/it]Processing 0178.jpg ...\n",
            " 82% 179/218 [03:47<00:50,  1.28s/it]Processing 0179.jpg ...\n",
            " 83% 180/218 [03:48<00:47,  1.25s/it]Processing 0180.jpg ...\n",
            " 83% 181/218 [03:49<00:45,  1.22s/it]Processing 0181.jpg ...\n",
            " 83% 182/218 [03:50<00:43,  1.21s/it]Processing 0182.jpg ...\n",
            " 84% 183/218 [03:52<00:41,  1.20s/it]Processing 0183.jpg ...\n",
            " 84% 184/218 [03:53<00:40,  1.19s/it]Processing 0184.jpg ...\n",
            " 85% 185/218 [03:54<00:39,  1.21s/it]Processing 0185.jpg ...\n",
            " 85% 186/218 [03:56<00:44,  1.38s/it]Processing 0186.jpg ...\n",
            " 86% 187/218 [03:57<00:43,  1.42s/it]Processing 0187.jpg ...\n",
            " 86% 188/218 [03:58<00:40,  1.34s/it]Processing 0188.jpg ...\n",
            " 87% 189/218 [04:00<00:37,  1.28s/it]Processing 0189.jpg ...\n",
            " 87% 190/218 [04:01<00:34,  1.25s/it]Processing 0190.jpg ...\n",
            " 88% 191/218 [04:02<00:32,  1.22s/it]Processing 0191.jpg ...\n",
            " 88% 192/218 [04:03<00:31,  1.20s/it]Processing 0192.jpg ...\n",
            " 89% 193/218 [04:04<00:29,  1.19s/it]Processing 0193.jpg ...\n",
            " 89% 194/218 [04:05<00:28,  1.18s/it]Processing 0194.jpg ...\n",
            " 89% 195/218 [04:06<00:27,  1.18s/it]Processing 0195.jpg ...\n",
            " 90% 196/218 [04:08<00:29,  1.33s/it]Processing 0196.jpg ...\n",
            " 90% 197/218 [04:10<00:29,  1.41s/it]Processing 0197.jpg ...\n",
            " 91% 198/218 [04:11<00:26,  1.34s/it]Processing 0198.jpg ...\n",
            " 91% 199/218 [04:12<00:24,  1.29s/it]Processing 0199.jpg ...\n",
            " 92% 200/218 [04:13<00:22,  1.25s/it]Processing 0200.jpg ...\n",
            " 92% 201/218 [04:14<00:20,  1.22s/it]Processing 0201.jpg ...\n",
            " 93% 202/218 [04:16<00:19,  1.21s/it]Processing 0202.jpg ...\n",
            " 93% 203/218 [04:17<00:17,  1.19s/it]Processing 0203.jpg ...\n",
            " 94% 204/218 [04:18<00:16,  1.19s/it]Processing 0204.jpg ...\n",
            " 94% 205/218 [04:19<00:15,  1.19s/it]Processing 0205.jpg ...\n",
            " 94% 206/218 [04:21<00:15,  1.27s/it]Processing 0206.jpg ...\n",
            " 95% 207/218 [04:22<00:15,  1.41s/it]Processing 0207.jpg ...\n",
            " 95% 208/218 [04:24<00:13,  1.37s/it]Processing 0208.jpg ...\n",
            " 96% 209/218 [04:25<00:11,  1.31s/it]Processing 0209.jpg ...\n",
            " 96% 210/218 [04:26<00:10,  1.27s/it]Processing 0210.jpg ...\n",
            " 97% 211/218 [04:27<00:08,  1.24s/it]Processing 0211.jpg ...\n",
            " 97% 212/218 [04:28<00:07,  1.22s/it]Processing 0212.jpg ...\n",
            " 98% 213/218 [04:29<00:05,  1.20s/it]Processing 0213.jpg ...\n",
            " 98% 214/218 [04:31<00:04,  1.19s/it]Processing 0214.jpg ...\n",
            " 99% 215/218 [04:32<00:03,  1.18s/it]Processing 0215.jpg ...\n",
            " 99% 216/218 [04:33<00:02,  1.23s/it]Processing 0216.jpg ...\n",
            "100% 217/218 [04:35<00:01,  1.39s/it]Processing 0217.jpg ...\n",
            "100% 218/218 [04:36<00:00,  1.27s/it]\n",
            "Results are in the [/content/Wav2Lip-GFPGAN/outputs] folder.\n"
          ]
        }
      ]
    },
    {
      "cell_type": "code",
      "source": [
        "import os\n",
        "restoredFramesPath = outputPath + '/restored_imgs/'\n",
        "processedVideoOutputPath = outputPath\n",
        "\n",
        "dir_list = os.listdir(restoredFramesPath)\n",
        "dir_list.sort()\n",
        "\n",
        "import cv2\n",
        "import numpy as np\n",
        "\n",
        "batch = 0\n",
        "batchSize = 300\n",
        "from tqdm import tqdm\n",
        "for i in tqdm(range(0, len(dir_list), batchSize)):\n",
        "  img_array = []\n",
        "  start, end = i, i+batchSize\n",
        "  print(\"processing \", start, end)\n",
        "  for filename in  tqdm(dir_list[start:end]):\n",
        "      filename = restoredFramesPath+filename;\n",
        "      img = cv2.imread(filename)\n",
        "      if img is None:\n",
        "        continue\n",
        "      height, width, layers = img.shape\n",
        "      size = (width,height)\n",
        "      img_array.append(img)\n",
        "\n",
        "\n",
        "  out = cv2.VideoWriter(processedVideoOutputPath+'/batch_'+str(batch).zfill(4)+'.avi',cv2.VideoWriter_fourcc(*'DIVX'), 30, size)\n",
        "  batch = batch + 1\n",
        "\n",
        "  for i in range(len(img_array)):\n",
        "    out.write(img_array[i])\n",
        "  out.release()\n"
      ],
      "metadata": {
        "id": "XibzGPIVJfvP",
        "colab": {
          "base_uri": "https://localhost:8080/",
          "height": 0
        },
        "outputId": "70cc3308-7962-4e24-cc1d-538304dfc3a1"
      },
      "execution_count": 16,
      "outputs": [
        {
          "output_type": "stream",
          "name": "stderr",
          "text": [
            "\r  0%|          | 0/1 [00:00<?, ?it/s]"
          ]
        },
        {
          "output_type": "stream",
          "name": "stdout",
          "text": [
            "processing  0 300\n"
          ]
        },
        {
          "output_type": "stream",
          "name": "stderr",
          "text": [
            "\n",
            "  0%|          | 0/218 [00:00<?, ?it/s]\u001b[A\n",
            "  1%|          | 2/218 [00:00<00:15, 13.80it/s]\u001b[A\n",
            "  2%|▏         | 4/218 [00:00<00:13, 15.93it/s]\u001b[A\n",
            "  3%|▎         | 6/218 [00:00<00:12, 16.67it/s]\u001b[A\n",
            "  4%|▍         | 9/218 [00:00<00:10, 19.04it/s]\u001b[A\n",
            "  6%|▌         | 12/218 [00:00<00:09, 20.90it/s]\u001b[A\n",
            "  7%|▋         | 15/218 [00:00<00:09, 22.10it/s]\u001b[A\n",
            "  8%|▊         | 18/218 [00:00<00:08, 22.37it/s]\u001b[A\n",
            " 10%|▉         | 21/218 [00:01<00:08, 23.06it/s]\u001b[A\n",
            " 11%|█         | 24/218 [00:01<00:08, 22.97it/s]\u001b[A\n",
            " 12%|█▏        | 27/218 [00:01<00:08, 23.56it/s]\u001b[A\n",
            " 14%|█▍        | 30/218 [00:01<00:07, 23.74it/s]\u001b[A\n",
            " 15%|█▌        | 33/218 [00:01<00:07, 24.02it/s]\u001b[A\n",
            " 17%|█▋        | 36/218 [00:01<00:07, 22.79it/s]\u001b[A\n",
            " 18%|█▊        | 39/218 [00:01<00:08, 20.49it/s]\u001b[A\n",
            " 19%|█▉        | 42/218 [00:02<00:09, 19.20it/s]\u001b[A\n",
            " 20%|██        | 44/218 [00:02<00:09, 19.28it/s]\u001b[A\n",
            " 22%|██▏       | 47/218 [00:02<00:08, 20.32it/s]\u001b[A\n",
            " 23%|██▎       | 50/218 [00:02<00:08, 20.00it/s]\u001b[A\n",
            " 24%|██▍       | 53/218 [00:02<00:08, 19.29it/s]\u001b[A\n",
            " 26%|██▌       | 56/218 [00:02<00:08, 19.73it/s]\u001b[A\n",
            " 27%|██▋       | 58/218 [00:02<00:08, 19.31it/s]\u001b[A\n",
            " 28%|██▊       | 60/218 [00:02<00:08, 18.58it/s]\u001b[A\n",
            " 28%|██▊       | 62/218 [00:03<00:08, 18.34it/s]\u001b[A\n",
            " 29%|██▉       | 64/218 [00:03<00:08, 17.81it/s]\u001b[A\n",
            " 30%|███       | 66/218 [00:03<00:08, 17.33it/s]\u001b[A\n",
            " 31%|███       | 68/218 [00:03<00:08, 16.80it/s]\u001b[A\n",
            " 32%|███▏      | 70/218 [00:03<00:08, 16.86it/s]\u001b[A\n",
            " 33%|███▎      | 72/218 [00:03<00:08, 17.01it/s]\u001b[A\n",
            " 34%|███▍      | 74/218 [00:03<00:08, 17.06it/s]\u001b[A\n",
            " 35%|███▍      | 76/218 [00:03<00:08, 16.60it/s]\u001b[A\n",
            " 36%|███▌      | 78/218 [00:04<00:08, 16.55it/s]\u001b[A\n",
            " 37%|███▋      | 80/218 [00:04<00:08, 16.70it/s]\u001b[A\n",
            " 38%|███▊      | 82/218 [00:04<00:08, 16.43it/s]\u001b[A\n",
            " 39%|███▊      | 84/218 [00:04<00:08, 16.61it/s]\u001b[A\n",
            " 39%|███▉      | 86/218 [00:04<00:07, 17.02it/s]\u001b[A\n",
            " 40%|████      | 88/218 [00:04<00:07, 17.05it/s]\u001b[A\n",
            " 41%|████▏     | 90/218 [00:04<00:07, 17.09it/s]\u001b[A\n",
            " 42%|████▏     | 92/218 [00:04<00:07, 17.31it/s]\u001b[A\n",
            " 43%|████▎     | 94/218 [00:04<00:07, 16.72it/s]\u001b[A\n",
            " 44%|████▍     | 96/218 [00:05<00:07, 16.07it/s]\u001b[A\n",
            " 45%|████▍     | 98/218 [00:05<00:07, 15.59it/s]\u001b[A\n",
            " 46%|████▌     | 100/218 [00:05<00:07, 16.10it/s]\u001b[A\n",
            " 47%|████▋     | 102/218 [00:05<00:07, 16.24it/s]\u001b[A\n",
            " 48%|████▊     | 104/218 [00:05<00:07, 16.16it/s]\u001b[A\n",
            " 49%|████▊     | 106/218 [00:05<00:06, 16.34it/s]\u001b[A\n",
            " 50%|████▉     | 108/218 [00:05<00:06, 16.45it/s]\u001b[A\n",
            " 50%|█████     | 110/218 [00:05<00:06, 16.32it/s]\u001b[A\n",
            " 51%|█████▏    | 112/218 [00:06<00:06, 16.26it/s]\u001b[A\n",
            " 52%|█████▏    | 114/218 [00:06<00:06, 16.16it/s]\u001b[A\n",
            " 53%|█████▎    | 116/218 [00:06<00:06, 16.74it/s]\u001b[A\n",
            " 54%|█████▍    | 118/218 [00:06<00:06, 16.57it/s]\u001b[A\n",
            " 55%|█████▌    | 120/218 [00:06<00:06, 16.19it/s]\u001b[A\n",
            " 56%|█████▌    | 122/218 [00:06<00:05, 16.62it/s]\u001b[A\n",
            " 57%|█████▋    | 124/218 [00:06<00:05, 16.48it/s]\u001b[A\n",
            " 58%|█████▊    | 126/218 [00:06<00:05, 16.57it/s]\u001b[A\n",
            " 59%|█████▊    | 128/218 [00:07<00:05, 16.02it/s]\u001b[A\n",
            " 60%|█████▉    | 130/218 [00:07<00:05, 15.44it/s]\u001b[A\n",
            " 61%|██████    | 132/218 [00:07<00:05, 15.68it/s]\u001b[A\n",
            " 61%|██████▏   | 134/218 [00:07<00:05, 15.95it/s]\u001b[A\n",
            " 62%|██████▏   | 136/218 [00:07<00:05, 15.98it/s]\u001b[A\n",
            " 63%|██████▎   | 138/218 [00:07<00:05, 15.94it/s]\u001b[A\n",
            " 64%|██████▍   | 140/218 [00:07<00:04, 15.92it/s]\u001b[A\n",
            " 65%|██████▌   | 142/218 [00:07<00:04, 16.09it/s]\u001b[A\n",
            " 66%|██████▌   | 144/218 [00:08<00:04, 15.42it/s]\u001b[A\n",
            " 67%|██████▋   | 146/218 [00:08<00:04, 15.88it/s]\u001b[A\n",
            " 68%|██████▊   | 148/218 [00:08<00:04, 15.39it/s]\u001b[A\n",
            " 69%|██████▉   | 150/218 [00:08<00:04, 16.07it/s]\u001b[A\n",
            " 70%|██████▉   | 152/218 [00:08<00:04, 15.82it/s]\u001b[A\n",
            " 71%|███████   | 154/218 [00:08<00:04, 15.85it/s]\u001b[A\n",
            " 72%|███████▏  | 156/218 [00:08<00:03, 15.91it/s]\u001b[A\n",
            " 72%|███████▏  | 158/218 [00:08<00:03, 16.22it/s]\u001b[A\n",
            " 73%|███████▎  | 160/218 [00:09<00:03, 15.83it/s]\u001b[A\n",
            " 74%|███████▍  | 162/218 [00:09<00:03, 15.82it/s]\u001b[A\n",
            " 75%|███████▌  | 164/218 [00:09<00:03, 15.61it/s]\u001b[A\n",
            " 76%|███████▌  | 166/218 [00:09<00:03, 16.11it/s]\u001b[A\n",
            " 77%|███████▋  | 168/218 [00:09<00:03, 16.41it/s]\u001b[A\n",
            " 78%|███████▊  | 170/218 [00:09<00:02, 16.57it/s]\u001b[A\n",
            " 79%|███████▉  | 172/218 [00:09<00:02, 16.44it/s]\u001b[A\n",
            " 80%|███████▉  | 174/218 [00:09<00:02, 16.22it/s]\u001b[A\n",
            " 81%|████████  | 176/218 [00:10<00:02, 15.78it/s]\u001b[A\n",
            " 82%|████████▏ | 178/218 [00:10<00:02, 15.53it/s]\u001b[A\n",
            " 83%|████████▎ | 180/218 [00:10<00:02, 16.02it/s]\u001b[A\n",
            " 83%|████████▎ | 182/218 [00:10<00:02, 15.42it/s]\u001b[A\n",
            " 84%|████████▍ | 184/218 [00:10<00:02, 14.02it/s]\u001b[A\n",
            " 85%|████████▌ | 186/218 [00:10<00:02, 13.56it/s]\u001b[A\n",
            " 86%|████████▌ | 188/218 [00:10<00:02, 13.53it/s]\u001b[A\n",
            " 87%|████████▋ | 190/218 [00:11<00:02, 13.02it/s]\u001b[A\n",
            " 88%|████████▊ | 192/218 [00:11<00:02, 12.54it/s]\u001b[A\n",
            " 89%|████████▉ | 194/218 [00:11<00:01, 12.49it/s]\u001b[A\n",
            " 90%|████████▉ | 196/218 [00:11<00:01, 12.54it/s]\u001b[A\n",
            " 91%|█████████ | 198/218 [00:11<00:01, 12.23it/s]\u001b[A\n",
            " 92%|█████████▏| 200/218 [00:11<00:01, 12.73it/s]\u001b[A\n",
            " 93%|█████████▎| 202/218 [00:12<00:01, 12.38it/s]\u001b[A\n",
            " 94%|█████████▎| 204/218 [00:12<00:01, 11.75it/s]\u001b[A\n",
            " 94%|█████████▍| 206/218 [00:12<00:00, 12.23it/s]\u001b[A\n",
            " 95%|█████████▌| 208/218 [00:12<00:00, 12.22it/s]\u001b[A\n",
            " 96%|█████████▋| 210/218 [00:12<00:00, 12.20it/s]\u001b[A\n",
            " 97%|█████████▋| 212/218 [00:12<00:00, 11.92it/s]\u001b[A\n",
            " 98%|█████████▊| 214/218 [00:13<00:00, 11.95it/s]\u001b[A\n",
            " 99%|█████████▉| 216/218 [00:13<00:00, 13.01it/s]\u001b[A\n",
            "100%|██████████| 218/218 [00:13<00:00, 16.32it/s]\n",
            "100%|██████████| 1/1 [00:25<00:00, 25.86s/it]\n"
          ]
        }
      ]
    },
    {
      "cell_type": "code",
      "source": [
        "concatTextFilePath = outputPath + \"/concat.txt\"\n",
        "concatTextFile=open(concatTextFilePath,\"w\")\n",
        "for ips in range(batch):\n",
        "  concatTextFile.write(\"file batch_\" + str(ips).zfill(4) + \".avi\\n\")\n",
        "concatTextFile.close()\n",
        "\n",
        "concatedVideoOutputPath = outputPath + \"/concated_output.avi\"\n",
        "!ffmpeg -y -f concat -i {concatTextFilePath} -c copy {concatedVideoOutputPath}\n",
        "\n",
        "finalProcessedOuputVideo = processedVideoOutputPath+'/final_with_audio.avi'\n",
        "!ffmpeg -y -i {concatedVideoOutputPath} -i {inputAudioPath} -map 0 -map 1:a -c:v copy -shortest {finalProcessedOuputVideo}\n",
        "\n",
        "from google.colab import files\n",
        "files.download(finalProcessedOuputVideo)"
      ],
      "metadata": {
        "id": "jtde28qwpDd6",
        "colab": {
          "base_uri": "https://localhost:8080/",
          "height": 1109
        },
        "outputId": "b7df7783-ee3b-4249-b43e-fba30c459acd"
      },
      "execution_count": 17,
      "outputs": [
        {
          "output_type": "stream",
          "name": "stdout",
          "text": [
            "ffmpeg version 4.4.2-0ubuntu0.22.04.1 Copyright (c) 2000-2021 the FFmpeg developers\n",
            "  built with gcc 11 (Ubuntu 11.2.0-19ubuntu1)\n",
            "  configuration: --prefix=/usr --extra-version=0ubuntu0.22.04.1 --toolchain=hardened --libdir=/usr/lib/x86_64-linux-gnu --incdir=/usr/include/x86_64-linux-gnu --arch=amd64 --enable-gpl --disable-stripping --enable-gnutls --enable-ladspa --enable-libaom --enable-libass --enable-libbluray --enable-libbs2b --enable-libcaca --enable-libcdio --enable-libcodec2 --enable-libdav1d --enable-libflite --enable-libfontconfig --enable-libfreetype --enable-libfribidi --enable-libgme --enable-libgsm --enable-libjack --enable-libmp3lame --enable-libmysofa --enable-libopenjpeg --enable-libopenmpt --enable-libopus --enable-libpulse --enable-librabbitmq --enable-librubberband --enable-libshine --enable-libsnappy --enable-libsoxr --enable-libspeex --enable-libsrt --enable-libssh --enable-libtheora --enable-libtwolame --enable-libvidstab --enable-libvorbis --enable-libvpx --enable-libwebp --enable-libx265 --enable-libxml2 --enable-libxvid --enable-libzimg --enable-libzmq --enable-libzvbi --enable-lv2 --enable-omx --enable-openal --enable-opencl --enable-opengl --enable-sdl2 --enable-pocketsphinx --enable-librsvg --enable-libmfx --enable-libdc1394 --enable-libdrm --enable-libiec61883 --enable-chromaprint --enable-frei0r --enable-libx264 --enable-shared\n",
            "  libavutil      56. 70.100 / 56. 70.100\n",
            "  libavcodec     58.134.100 / 58.134.100\n",
            "  libavformat    58. 76.100 / 58. 76.100\n",
            "  libavdevice    58. 13.100 / 58. 13.100\n",
            "  libavfilter     7.110.100 /  7.110.100\n",
            "  libswscale      5.  9.100 /  5.  9.100\n",
            "  libswresample   3.  9.100 /  3.  9.100\n",
            "  libpostproc    55.  9.100 / 55.  9.100\n",
            "Input #0, concat, from '/content/Wav2Lip-GFPGAN/outputs/concat.txt':\n",
            "  Duration: N/A, start: 0.000000, bitrate: 20151 kb/s\n",
            "  Stream #0:0: Video: mpeg4 (Simple Profile) (DIVX / 0x58564944), yuv420p, 3840x2160 [SAR 1:1 DAR 16:9], 20151 kb/s, 30 fps, 30 tbr, 30 tbn, 30 tbc\n",
            "Output #0, avi, to '/content/Wav2Lip-GFPGAN/outputs/concated_output.avi':\n",
            "  Metadata:\n",
            "    ISFT            : Lavf58.76.100\n",
            "  Stream #0:0: Video: mpeg4 (Simple Profile) (DIVX / 0x58564944), yuv420p, 3840x2160 [SAR 1:1 DAR 16:9], q=2-31, 20151 kb/s, 30 fps, 30 tbr, 30 tbn, 30 tbc\n",
            "Stream mapping:\n",
            "  Stream #0:0 -> #0:0 (copy)\n",
            "Press [q] to stop, [?] for help\n",
            "frame=    1 fps=0.0 q=-1.0 size=     165kB time=00:00:00.03 bitrate=40667.0kbits/s speed=N/A    \rframe=  218 fps=0.0 q=-1.0 Lsize=   17804kB time=00:00:07.26 bitrate=20071.0kbits/s speed= 187x    \n",
            "video:17793kB audio:0kB subtitle:0kB other streams:0kB global headers:0kB muxing overhead: 0.061158%\n",
            "ffmpeg version 4.4.2-0ubuntu0.22.04.1 Copyright (c) 2000-2021 the FFmpeg developers\n",
            "  built with gcc 11 (Ubuntu 11.2.0-19ubuntu1)\n",
            "  configuration: --prefix=/usr --extra-version=0ubuntu0.22.04.1 --toolchain=hardened --libdir=/usr/lib/x86_64-linux-gnu --incdir=/usr/include/x86_64-linux-gnu --arch=amd64 --enable-gpl --disable-stripping --enable-gnutls --enable-ladspa --enable-libaom --enable-libass --enable-libbluray --enable-libbs2b --enable-libcaca --enable-libcdio --enable-libcodec2 --enable-libdav1d --enable-libflite --enable-libfontconfig --enable-libfreetype --enable-libfribidi --enable-libgme --enable-libgsm --enable-libjack --enable-libmp3lame --enable-libmysofa --enable-libopenjpeg --enable-libopenmpt --enable-libopus --enable-libpulse --enable-librabbitmq --enable-librubberband --enable-libshine --enable-libsnappy --enable-libsoxr --enable-libspeex --enable-libsrt --enable-libssh --enable-libtheora --enable-libtwolame --enable-libvidstab --enable-libvorbis --enable-libvpx --enable-libwebp --enable-libx265 --enable-libxml2 --enable-libxvid --enable-libzimg --enable-libzmq --enable-libzvbi --enable-lv2 --enable-omx --enable-openal --enable-opencl --enable-opengl --enable-sdl2 --enable-pocketsphinx --enable-librsvg --enable-libmfx --enable-libdc1394 --enable-libdrm --enable-libiec61883 --enable-chromaprint --enable-frei0r --enable-libx264 --enable-shared\n",
            "  libavutil      56. 70.100 / 56. 70.100\n",
            "  libavcodec     58.134.100 / 58.134.100\n",
            "  libavformat    58. 76.100 / 58. 76.100\n",
            "  libavdevice    58. 13.100 / 58. 13.100\n",
            "  libavfilter     7.110.100 /  7.110.100\n",
            "  libswscale      5.  9.100 /  5.  9.100\n",
            "  libswresample   3.  9.100 /  3.  9.100\n",
            "  libpostproc    55.  9.100 / 55.  9.100\n",
            "Input #0, avi, from '/content/Wav2Lip-GFPGAN/outputs/concated_output.avi':\n",
            "  Metadata:\n",
            "    software        : Lavf58.76.100\n",
            "  Duration: 00:00:07.27, start: 0.000000, bitrate: 20070 kb/s\n",
            "  Stream #0:0: Video: mpeg4 (Simple Profile) (DIVX / 0x58564944), yuv420p, 3840x2160 [SAR 1:1 DAR 16:9], 20151 kb/s, 30 fps, 30 tbr, 30 tbn, 30 tbc\n",
            "Input #1, mp3, from '/content/Wav2Lip-GFPGAN/inputs/kim_audio.mp3':\n",
            "  Metadata:\n",
            "    comment         : audio-extractor.net\n",
            "  Duration: 00:00:07.44, start: 0.025057, bitrate: 132 kb/s\n",
            "  Stream #1:0: Audio: mp3, 44100 Hz, stereo, fltp, 128 kb/s\n",
            "    Metadata:\n",
            "      encoder         : Lavc59.18\n",
            "Stream mapping:\n",
            "  Stream #0:0 -> #0:0 (copy)\n",
            "  Stream #1:0 -> #0:1 (mp3 (mp3float) -> mp3 (libmp3lame))\n",
            "Press [q] to stop, [?] for help\n",
            "Output #0, avi, to '/content/Wav2Lip-GFPGAN/outputs/final_with_audio.avi':\n",
            "  Metadata:\n",
            "    software        : Lavf58.76.100\n",
            "    ISFT            : Lavf58.76.100\n",
            "  Stream #0:0: Video: mpeg4 (Simple Profile) (DIVX / 0x58564944), yuv420p, 3840x2160 [SAR 1:1 DAR 16:9], q=2-31, 20151 kb/s, 30 fps, 30 tbr, 30 tbn, 30 tbc\n",
            "  Stream #0:1: Audio: mp3 (U[0][0][0] / 0x0055), 44100 Hz, stereo, fltp\n",
            "    Metadata:\n",
            "      encoder         : Lavc58.134.100 libmp3lame\n",
            "frame=  218 fps=0.0 q=-1.0 Lsize=   17928kB time=00:00:07.26 bitrate=20211.4kbits/s speed=  25x    \n",
            "video:17793kB audio:114kB subtitle:0kB other streams:0kB global headers:0kB muxing overhead: 0.120617%\n"
          ]
        },
        {
          "output_type": "display_data",
          "data": {
            "text/plain": [
              "<IPython.core.display.Javascript object>"
            ],
            "application/javascript": [
              "\n",
              "    async function download(id, filename, size) {\n",
              "      if (!google.colab.kernel.accessAllowed) {\n",
              "        return;\n",
              "      }\n",
              "      const div = document.createElement('div');\n",
              "      const label = document.createElement('label');\n",
              "      label.textContent = `Downloading \"${filename}\": `;\n",
              "      div.appendChild(label);\n",
              "      const progress = document.createElement('progress');\n",
              "      progress.max = size;\n",
              "      div.appendChild(progress);\n",
              "      document.body.appendChild(div);\n",
              "\n",
              "      const buffers = [];\n",
              "      let downloaded = 0;\n",
              "\n",
              "      const channel = await google.colab.kernel.comms.open(id);\n",
              "      // Send a message to notify the kernel that we're ready.\n",
              "      channel.send({})\n",
              "\n",
              "      for await (const message of channel.messages) {\n",
              "        // Send a message to notify the kernel that we're ready.\n",
              "        channel.send({})\n",
              "        if (message.buffers) {\n",
              "          for (const buffer of message.buffers) {\n",
              "            buffers.push(buffer);\n",
              "            downloaded += buffer.byteLength;\n",
              "            progress.value = downloaded;\n",
              "          }\n",
              "        }\n",
              "      }\n",
              "      const blob = new Blob(buffers, {type: 'application/binary'});\n",
              "      const a = document.createElement('a');\n",
              "      a.href = window.URL.createObjectURL(blob);\n",
              "      a.download = filename;\n",
              "      div.appendChild(a);\n",
              "      a.click();\n",
              "      div.remove();\n",
              "    }\n",
              "  "
            ]
          },
          "metadata": {}
        },
        {
          "output_type": "display_data",
          "data": {
            "text/plain": [
              "<IPython.core.display.Javascript object>"
            ],
            "application/javascript": [
              "download(\"download_8b52c705-6c4f-4708-930b-fa4bbb47611f\", \"final_with_audio.avi\", 18358734)"
            ]
          },
          "metadata": {}
        }
      ]
    }
  ]
}